G04 Layer: TopSilkLayer*
G04 EasyEDA v6.4.7, 2020-11-20T18:15:40+05:30*
G04 2bd19a94ae5149c988909f382a05baad,5a8210e43a1b4091af5044d7901ac753,10*
G04 Gerber Generator version 0.2*
G04 Scale: 100 percent, Rotated: No, Reflected: No *
G04 Dimensions in millimeters *
G04 leading zeros omitted , absolute positions ,3 integer and 3 decimal *
%FSLAX33Y33*%
%MOMM*%
G90*
D02*

%ADD10C,0.254000*%
%ADD32C,0.203200*%
%ADD33C,0.199898*%
%ADD34C,0.200660*%
%ADD35C,0.149987*%
%ADD36C,0.152400*%

%LPD*%
G54D32*
G01X61595Y36830D02*
G01X61595Y34315D01*
G01X56515Y34315D01*
G01X56515Y36830D01*
G01X61595Y36830D01*
G54D10*
G01X14547Y32557D02*
G01X66548Y32557D01*
G01X66548Y11557D02*
G01X56547Y11557D01*
G01X66548Y11557D02*
G01X66548Y21557D01*
G01X66548Y21557D02*
G01X66548Y32557D01*
G01X56547Y11557D02*
G01X46547Y11557D01*
G01X46548Y11557D02*
G01X36548Y11557D01*
G01X36548Y11557D02*
G01X26548Y11557D01*
G01X26548Y11557D02*
G01X14547Y11557D01*
G01X14547Y21557D02*
G01X14547Y32557D01*
G01X14547Y11557D02*
G01X14547Y21557D01*
G01X66548Y18557D02*
G01X58547Y18557D01*
G01X58547Y25356D01*
G01X58547Y25557D01*
G01X58747Y25557D01*
G01X66548Y25557D01*
G54D33*
G01X2794Y21463D02*
G01X12954Y21463D01*
G01X12954Y18923D01*
G01X14224Y18923D01*
G01X14224Y16383D01*
G01X2794Y16383D01*
G01X2794Y21463D01*
G54D32*
G01X48895Y34290D02*
G01X48895Y36804D01*
G01X53975Y36804D01*
G01X53975Y34290D01*
G01X48895Y34290D01*
G54D34*
G01X35052Y34290D02*
G01X35052Y36830D01*
G01X35052Y36830D02*
G01X45212Y36830D01*
G01X35052Y34290D02*
G01X45212Y34290D01*
G01X45212Y34290D02*
G01X45212Y36830D01*
G54D35*
G01X-4509Y2373D02*
G01X-5309Y13371D01*
G01X-3709Y2373D02*
G01X-4509Y13371D01*
G01X-2909Y2373D02*
G01X-3709Y13371D01*
G01X-2109Y2373D02*
G01X-2909Y13371D01*
G01X-1309Y2373D02*
G01X-2109Y13371D01*
G01X-509Y2373D02*
G01X-1309Y13371D01*
G01X-7407Y12673D02*
G01X-19409Y12673D01*
G01X-19409Y3072D01*
G01X-7407Y3072D01*
G01X90Y13371D02*
G01X-7407Y13371D01*
G01X-7407Y2373D01*
G01X90Y2373D01*
G01X14491Y72D02*
G01X14491Y15673D01*
G01X90Y15673D01*
G01X90Y72D01*
G01X14491Y72D01*
G01X-4636Y24598D02*
G01X-5436Y35596D01*
G01X-3836Y24598D02*
G01X-4636Y35596D01*
G01X-3036Y24598D02*
G01X-3836Y35596D01*
G01X-2236Y24598D02*
G01X-3036Y35596D01*
G01X-1436Y24598D02*
G01X-2236Y35596D01*
G01X-636Y24598D02*
G01X-1436Y35596D01*
G01X-7534Y34898D02*
G01X-19536Y34898D01*
G01X-19536Y25297D01*
G01X-7534Y25297D01*
G01X-36Y35596D02*
G01X-7534Y35596D01*
G01X-7534Y24598D01*
G01X-36Y24598D01*
G01X14364Y22297D02*
G01X14364Y37898D01*
G01X-36Y37898D01*
G01X-36Y22297D01*
G01X14364Y22297D01*
G54D34*
G01X18415Y34290D02*
G01X18415Y36830D01*
G01X18415Y36830D02*
G01X31115Y36830D01*
G01X18415Y34290D02*
G01X31115Y34290D01*
G01X31115Y34290D02*
G01X31115Y36830D01*

%LPD*%
G36*
G01X88358Y9525D02*
G01X86979Y9525D01*
G01X86829Y9497D01*
G01X86702Y9413D01*
G01X86619Y9286D01*
G01X86591Y9136D01*
G01X86591Y9009D01*
G01X86913Y9009D01*
G01X86913Y9136D01*
G01X86915Y9148D01*
G01X86918Y9160D01*
G01X86925Y9171D01*
G01X86934Y9182D01*
G01X86943Y9191D01*
G01X86954Y9197D01*
G01X86966Y9200D01*
G01X86979Y9202D01*
G01X88358Y9202D01*
G01X88372Y9201D01*
G01X88384Y9197D01*
G01X88396Y9191D01*
G01X88407Y9182D01*
G01X88414Y9171D01*
G01X88420Y9160D01*
G01X88424Y9148D01*
G01X88425Y9136D01*
G01X88425Y8643D01*
G01X88424Y8631D01*
G01X88420Y8619D01*
G01X88414Y8608D01*
G01X88407Y8597D01*
G01X88396Y8588D01*
G01X88384Y8582D01*
G01X88372Y8578D01*
G01X88358Y8577D01*
G01X86979Y8577D01*
G01X86829Y8549D01*
G01X86702Y8463D01*
G01X86619Y8337D01*
G01X86591Y8188D01*
G01X86591Y7366D01*
G01X88750Y7366D01*
G01X88750Y7691D01*
G01X86979Y7691D01*
G01X86966Y7692D01*
G01X86954Y7695D01*
G01X86943Y7701D01*
G01X86934Y7708D01*
G01X86925Y7719D01*
G01X86918Y7731D01*
G01X86915Y7743D01*
G01X86913Y7757D01*
G01X86913Y8188D01*
G01X86915Y8201D01*
G01X86918Y8212D01*
G01X86925Y8224D01*
G01X86934Y8234D01*
G01X86943Y8243D01*
G01X86954Y8249D01*
G01X86966Y8253D01*
G01X86979Y8255D01*
G01X88358Y8255D01*
G01X88509Y8282D01*
G01X88635Y8366D01*
G01X88721Y8493D01*
G01X88750Y8643D01*
G01X88750Y9136D01*
G01X88721Y9286D01*
G01X88635Y9413D01*
G01X88509Y9497D01*
G01X88358Y9525D01*
G37*

%LPD*%
G36*
G01X85857Y9525D02*
G01X84477Y9525D01*
G01X84327Y9497D01*
G01X84201Y9413D01*
G01X84117Y9286D01*
G01X84089Y9136D01*
G01X84089Y7757D01*
G01X84117Y7606D01*
G01X84201Y7480D01*
G01X84327Y7394D01*
G01X84477Y7366D01*
G01X85857Y7366D01*
G01X86007Y7394D01*
G01X86133Y7480D01*
G01X86219Y7606D01*
G01X86248Y7757D01*
G01X86248Y9136D01*
G01X86219Y9286D01*
G01X86133Y9413D01*
G01X86007Y9497D01*
G01X85857Y9525D01*
G37*

%LPC*%
G36*
G01X85923Y7757D02*
G01X85923Y8869D01*
G01X84521Y7691D01*
G01X85857Y7691D01*
G01X85870Y7692D01*
G01X85882Y7695D01*
G01X85894Y7701D01*
G01X85905Y7708D01*
G01X85912Y7719D01*
G01X85918Y7731D01*
G01X85922Y7743D01*
G01X85923Y7757D01*
G37*
G36*
G01X85816Y9202D02*
G01X84477Y9202D01*
G01X84464Y9200D01*
G01X84452Y9197D01*
G01X84441Y9191D01*
G01X84432Y9182D01*
G01X84423Y9171D01*
G01X84416Y9160D01*
G01X84413Y9148D01*
G01X84411Y9136D01*
G01X84411Y8023D01*
G01X85816Y9202D01*
G37*

%LPD*%
G36*
G01X83497Y9525D02*
G01X83172Y9525D01*
G01X81744Y8239D01*
G01X81744Y7914D01*
G01X83172Y7914D01*
G01X83172Y7366D01*
G01X83497Y7366D01*
G01X83497Y7914D01*
G01X83814Y7914D01*
G01X83814Y8239D01*
G01X83497Y8239D01*
G01X83497Y9525D01*
G37*

%LPC*%
G36*
G01X83172Y8239D02*
G01X83172Y9017D01*
G01X82217Y8239D01*
G01X83172Y8239D01*
G37*

%LPD*%
G36*
G01X81183Y9525D02*
G01X79804Y9525D01*
G01X79653Y9497D01*
G01X79527Y9413D01*
G01X79441Y9286D01*
G01X79413Y9136D01*
G01X79413Y8674D01*
G01X79441Y8523D01*
G01X79527Y8397D01*
G01X79653Y8311D01*
G01X79804Y8282D01*
G01X81183Y8282D01*
G01X81197Y8281D01*
G01X81209Y8278D01*
G01X81221Y8272D01*
G01X81231Y8265D01*
G01X81239Y8254D01*
G01X81244Y8242D01*
G01X81248Y8230D01*
G01X81249Y8216D01*
G01X81249Y7757D01*
G01X81248Y7743D01*
G01X81244Y7731D01*
G01X81239Y7719D01*
G01X81231Y7708D01*
G01X81221Y7701D01*
G01X81209Y7695D01*
G01X81197Y7692D01*
G01X81183Y7691D01*
G01X79804Y7691D01*
G01X79791Y7692D01*
G01X79778Y7695D01*
G01X79768Y7701D01*
G01X79758Y7708D01*
G01X79749Y7719D01*
G01X79743Y7731D01*
G01X79739Y7743D01*
G01X79738Y7757D01*
G01X79738Y7881D01*
G01X79413Y7881D01*
G01X79413Y7757D01*
G01X79441Y7606D01*
G01X79527Y7480D01*
G01X79653Y7394D01*
G01X79804Y7366D01*
G01X81183Y7366D01*
G01X81333Y7394D01*
G01X81460Y7480D01*
G01X81546Y7606D01*
G01X81574Y7757D01*
G01X81574Y8216D01*
G01X81546Y8367D01*
G01X81460Y8493D01*
G01X81333Y8579D01*
G01X81183Y8608D01*
G01X79804Y8608D01*
G01X79791Y8609D01*
G01X79778Y8613D01*
G01X79768Y8619D01*
G01X79758Y8628D01*
G01X79749Y8638D01*
G01X79743Y8648D01*
G01X79739Y8660D01*
G01X79738Y8674D01*
G01X79738Y9136D01*
G01X79739Y9148D01*
G01X79743Y9160D01*
G01X79749Y9171D01*
G01X79758Y9182D01*
G01X79768Y9191D01*
G01X79778Y9197D01*
G01X79791Y9200D01*
G01X79804Y9202D01*
G01X81183Y9202D01*
G01X81197Y9201D01*
G01X81209Y9197D01*
G01X81221Y9191D01*
G01X81231Y9182D01*
G01X81239Y9171D01*
G01X81244Y9160D01*
G01X81248Y9148D01*
G01X81249Y9136D01*
G01X81249Y9009D01*
G01X81574Y9009D01*
G01X81574Y9136D01*
G01X81546Y9286D01*
G01X81460Y9413D01*
G01X81333Y9497D01*
G01X81183Y9525D01*
G37*

%LPD*%
G36*
G01X77203Y9525D02*
G01X76878Y9525D01*
G01X76878Y7366D01*
G01X77203Y7366D01*
G01X77203Y8282D01*
G01X78765Y8282D01*
G01X78765Y7366D01*
G01X79090Y7366D01*
G01X79090Y9525D01*
G01X78765Y9525D01*
G01X78765Y8608D01*
G01X77203Y8608D01*
G01X77203Y9525D01*
G37*

%LPD*%

%LPD*%
G36*
G01X84757Y5588D02*
G01X83378Y5588D01*
G01X83227Y5560D01*
G01X83101Y5476D01*
G01X83015Y5349D01*
G01X82986Y5199D01*
G01X82986Y3820D01*
G01X83015Y3669D01*
G01X83101Y3543D01*
G01X83227Y3457D01*
G01X83378Y3429D01*
G01X84757Y3429D01*
G01X84907Y3457D01*
G01X85034Y3543D01*
G01X85119Y3669D01*
G01X85148Y3820D01*
G01X85148Y5199D01*
G01X85119Y5349D01*
G01X85034Y5476D01*
G01X84907Y5560D01*
G01X84757Y5588D01*
G37*

%LPC*%
G36*
G01X84757Y5265D02*
G01X83378Y5265D01*
G01X83364Y5263D01*
G01X83352Y5260D01*
G01X83341Y5254D01*
G01X83332Y5245D01*
G01X83323Y5234D01*
G01X83317Y5223D01*
G01X83313Y5211D01*
G01X83312Y5199D01*
G01X83312Y3820D01*
G01X83313Y3806D01*
G01X83317Y3794D01*
G01X83323Y3782D01*
G01X83332Y3771D01*
G01X83341Y3764D01*
G01X83352Y3758D01*
G01X83364Y3755D01*
G01X83378Y3754D01*
G01X84757Y3754D01*
G01X84770Y3755D01*
G01X84783Y3758D01*
G01X84794Y3764D01*
G01X84805Y3771D01*
G01X84813Y3782D01*
G01X84818Y3794D01*
G01X84822Y3806D01*
G01X84823Y3820D01*
G01X84823Y5199D01*
G01X84822Y5211D01*
G01X84818Y5223D01*
G01X84813Y5234D01*
G01X84805Y5245D01*
G01X84794Y5254D01*
G01X84783Y5260D01*
G01X84770Y5264D01*
G01X84757Y5265D01*
G37*

%LPD*%
G36*
G01X82285Y5585D02*
G01X80515Y5585D01*
G01X80515Y3429D01*
G01X80840Y3429D01*
G01X80840Y4206D01*
G01X80859Y4204D01*
G01X80877Y4202D01*
G01X80892Y4201D01*
G01X81643Y4201D01*
G01X82290Y3429D01*
G01X82677Y3429D01*
G01X82677Y3474D01*
G01X82067Y4201D01*
G01X82285Y4201D01*
G01X82436Y4229D01*
G01X82562Y4315D01*
G01X82648Y4440D01*
G01X82677Y4589D01*
G01X82677Y5196D01*
G01X82648Y5344D01*
G01X82562Y5471D01*
G01X82436Y5557D01*
G01X82285Y5585D01*
G37*

%LPC*%
G36*
G01X82285Y5262D02*
G01X80906Y5262D01*
G01X80892Y5261D01*
G01X80880Y5257D01*
G01X80869Y5251D01*
G01X80858Y5242D01*
G01X80850Y5231D01*
G01X80845Y5221D01*
G01X80841Y5209D01*
G01X80840Y5196D01*
G01X80840Y4589D01*
G01X80841Y4576D01*
G01X80845Y4564D01*
G01X80850Y4553D01*
G01X80858Y4544D01*
G01X80869Y4534D01*
G01X80880Y4528D01*
G01X80892Y4524D01*
G01X80906Y4523D01*
G01X82285Y4523D01*
G01X82299Y4524D01*
G01X82311Y4528D01*
G01X82321Y4534D01*
G01X82340Y4553D01*
G01X82346Y4564D01*
G01X82350Y4576D01*
G01X82351Y4589D01*
G01X82351Y5196D01*
G01X82350Y5209D01*
G01X82346Y5220D01*
G01X82340Y5231D01*
G01X82331Y5242D01*
G01X82321Y5251D01*
G01X82311Y5257D01*
G01X82299Y5261D01*
G01X82285Y5262D01*
G37*

%LPD*%
G36*
G01X79916Y5585D02*
G01X78145Y5585D01*
G01X78145Y3429D01*
G01X78470Y3429D01*
G01X78470Y4206D01*
G01X78490Y4204D01*
G01X78507Y4202D01*
G01X78523Y4201D01*
G01X79916Y4201D01*
G01X80066Y4229D01*
G01X80192Y4315D01*
G01X80278Y4440D01*
G01X80307Y4589D01*
G01X80307Y5196D01*
G01X80278Y5344D01*
G01X80192Y5471D01*
G01X80066Y5557D01*
G01X79916Y5585D01*
G37*

%LPC*%
G36*
G01X79916Y5262D02*
G01X78536Y5262D01*
G01X78523Y5261D01*
G01X78510Y5257D01*
G01X78499Y5251D01*
G01X78488Y5242D01*
G01X78480Y5231D01*
G01X78475Y5221D01*
G01X78471Y5209D01*
G01X78470Y5196D01*
G01X78470Y4589D01*
G01X78471Y4576D01*
G01X78475Y4564D01*
G01X78480Y4553D01*
G01X78488Y4544D01*
G01X78499Y4534D01*
G01X78510Y4528D01*
G01X78523Y4524D01*
G01X78536Y4523D01*
G01X79916Y4523D01*
G01X79929Y4524D01*
G01X79941Y4528D01*
G01X79952Y4534D01*
G01X79961Y4544D01*
G01X79970Y4553D01*
G01X79976Y4564D01*
G01X79981Y4576D01*
G01X79982Y4589D01*
G01X79982Y5196D01*
G01X79981Y5209D01*
G01X79976Y5220D01*
G01X79970Y5231D01*
G01X79961Y5242D01*
G01X79952Y5251D01*
G01X79941Y5257D01*
G01X79929Y5261D01*
G01X79916Y5262D01*
G37*

%LPD*%

%LPD*%
G36*
G01X57658Y22639D02*
G01X56774Y22639D01*
G01X56734Y22635D01*
G01X56698Y22624D01*
G01X56664Y22607D01*
G01X56634Y22583D01*
G01X56609Y22553D01*
G01X56592Y22520D01*
G01X56582Y22485D01*
G01X56578Y22445D01*
G01X56578Y21739D01*
G01X56741Y21739D01*
G01X56741Y22452D01*
G01X56743Y22458D01*
G01X56745Y22463D01*
G01X56748Y22468D01*
G01X56754Y22473D01*
G01X56760Y22476D01*
G01X56766Y22478D01*
G01X56774Y22479D01*
G01X57658Y22479D01*
G01X57658Y22639D01*
G37*

%LPD*%
G36*
G01X57658Y21658D02*
G01X57495Y21658D01*
G01X57495Y21496D01*
G01X57658Y21496D01*
G01X57658Y21658D01*
G37*

%LPD*%
G36*
G01X57658Y21328D02*
G01X56578Y21328D01*
G01X56578Y21132D01*
G01X56941Y20830D01*
G01X56941Y21041D01*
G01X56794Y21165D01*
G01X57658Y21165D01*
G01X57658Y21328D01*
G37*

%LPD*%

%LPD*%
G36*
G01X62064Y36195D02*
G01X61904Y36195D01*
G01X61904Y35115D01*
G01X62097Y35115D01*
G01X62517Y35613D01*
G01X62936Y35115D01*
G01X63129Y35115D01*
G01X63129Y36195D01*
G01X62966Y36195D01*
G01X62966Y35331D01*
G01X62517Y35867D01*
G01X62064Y35331D01*
G01X62064Y36195D01*
G37*

%LPD*%
G36*
G01X63789Y36195D02*
G01X63657Y36195D01*
G01X63263Y35115D01*
G01X63436Y35115D01*
G01X63723Y35902D01*
G01X64010Y35115D01*
G01X64183Y35115D01*
G01X64467Y35902D01*
G01X64754Y35115D01*
G01X64927Y35115D01*
G01X64533Y36195D01*
G01X64404Y36195D01*
G01X64096Y35354D01*
G01X63789Y36195D01*
G37*

%LPD*%
G36*
G01X66083Y36195D02*
G01X65920Y36195D01*
G01X65920Y35806D01*
G01X65910Y35807D01*
G01X65902Y35808D01*
G01X65199Y35808D01*
G01X65160Y35805D01*
G01X65123Y35794D01*
G01X65090Y35775D01*
G01X65059Y35750D01*
G01X65035Y35721D01*
G01X65017Y35688D01*
G01X65007Y35652D01*
G01X65003Y35613D01*
G01X65003Y35311D01*
G01X65007Y35272D01*
G01X65017Y35237D01*
G01X65035Y35204D01*
G01X65059Y35173D01*
G01X65090Y35148D01*
G01X65123Y35130D01*
G01X65160Y35119D01*
G01X65199Y35115D01*
G01X66083Y35115D01*
G01X66083Y36195D01*
G37*

%LPC*%
G36*
G01X65887Y35646D02*
G01X65199Y35646D01*
G01X65185Y35644D01*
G01X65179Y35642D01*
G01X65173Y35638D01*
G01X65170Y35633D01*
G01X65168Y35627D01*
G01X65166Y35620D01*
G01X65166Y35304D01*
G01X65168Y35298D01*
G01X65170Y35293D01*
G01X65173Y35288D01*
G01X65179Y35283D01*
G01X65185Y35280D01*
G01X65192Y35278D01*
G01X65893Y35278D01*
G01X65899Y35280D01*
G01X65905Y35283D01*
G01X65915Y35293D01*
G01X65918Y35298D01*
G01X65920Y35304D01*
G01X65920Y35620D01*
G01X65918Y35627D01*
G01X65915Y35633D01*
G01X65910Y35638D01*
G01X65905Y35642D01*
G01X65899Y35644D01*
G01X65887Y35646D01*
G37*

%LPD*%
G54D32*
G01X63643Y20575D02*
G01X63552Y20484D01*
G01X63506Y20348D01*
G01X63506Y20166D01*
G01X63552Y20029D01*
G01X63643Y19939D01*
G01X63734Y19939D01*
G01X63825Y19984D01*
G01X63870Y20029D01*
G01X63916Y20120D01*
G01X64006Y20393D01*
G01X64052Y20484D01*
G01X64097Y20529D01*
G01X64188Y20575D01*
G01X64325Y20575D01*
G01X64416Y20484D01*
G01X64461Y20348D01*
G01X64461Y20166D01*
G01X64416Y20029D01*
G01X64325Y19939D01*
G01X63506Y21193D02*
G01X64461Y21193D01*
G01X63506Y20875D02*
G01X63506Y21511D01*
G01X63506Y21811D02*
G01X64461Y21811D01*
G01X63506Y21811D02*
G01X64461Y22175D01*
G01X63506Y22538D02*
G01X64461Y22175D01*
G01X63506Y22538D02*
G01X64461Y22538D01*
G01X63506Y22929D02*
G01X63506Y23429D01*
G01X63870Y23157D01*
G01X63870Y23293D01*
G01X63916Y23384D01*
G01X63961Y23429D01*
G01X64097Y23475D01*
G01X64188Y23475D01*
G01X64325Y23429D01*
G01X64416Y23338D01*
G01X64461Y23202D01*
G01X64461Y23066D01*
G01X64416Y22929D01*
G01X64370Y22884D01*
G01X64279Y22838D01*
G01X63734Y23820D02*
G01X63688Y23820D01*
G01X63597Y23866D01*
G01X63552Y23911D01*
G01X63506Y24002D01*
G01X63506Y24184D01*
G01X63552Y24275D01*
G01X63597Y24320D01*
G01X63688Y24366D01*
G01X63779Y24366D01*
G01X63870Y24320D01*
G01X64006Y24229D01*
G01X64461Y23775D01*
G01X64461Y24411D01*
G54D36*
G01X62109Y21463D02*
G01X62791Y21463D01*
G01X62928Y21508D01*
G01X63019Y21599D01*
G01X63064Y21735D01*
G01X63064Y21826D01*
G01X63019Y21962D01*
G01X62928Y22053D01*
G01X62791Y22099D01*
G01X62109Y22099D01*
G01X62246Y22944D02*
G01X62155Y22899D01*
G01X62109Y22762D01*
G01X62109Y22672D01*
G01X62155Y22535D01*
G01X62291Y22444D01*
G01X62519Y22399D01*
G01X62746Y22399D01*
G01X62928Y22444D01*
G01X63019Y22535D01*
G01X63064Y22672D01*
G01X63064Y22717D01*
G01X63019Y22853D01*
G01X62928Y22944D01*
G01X62791Y22990D01*
G01X62746Y22990D01*
G01X62609Y22944D01*
G01X62519Y22853D01*
G01X62473Y22717D01*
G01X62473Y22672D01*
G01X62519Y22535D01*
G01X62609Y22444D01*
G01X62746Y22399D01*
G54D32*
G01X65030Y20701D02*
G01X65985Y20701D01*
G01X65030Y20701D02*
G01X65030Y21291D01*
G01X65485Y20701D02*
G01X65485Y21064D01*
G01X65030Y22046D02*
G01X65667Y21591D01*
G01X65667Y22273D01*
G01X65030Y22046D02*
G01X65985Y22046D01*
G01X65212Y22573D02*
G01X65167Y22664D01*
G01X65030Y22800D01*
G01X65985Y22800D01*
G01X65212Y23100D02*
G01X65167Y23191D01*
G01X65030Y23328D01*
G01X65985Y23328D01*
G54D36*
G01X12689Y16891D02*
G01X13779Y16891D01*
G01X12689Y16891D02*
G01X12689Y17358D01*
G01X12740Y17513D01*
G01X12793Y17566D01*
G01X12898Y17617D01*
G01X13002Y17617D01*
G01X13106Y17566D01*
G01X13157Y17513D01*
G01X13208Y17358D01*
G01X13208Y16891D01*
G01X13208Y17254D02*
G01X13779Y17617D01*
G01X13053Y18635D02*
G01X13208Y18585D01*
G01X13312Y18481D01*
G01X13365Y18326D01*
G01X13365Y18272D01*
G01X13312Y18117D01*
G01X13208Y18013D01*
G01X13053Y17960D01*
G01X13002Y17960D01*
G01X12844Y18013D01*
G01X12740Y18117D01*
G01X12689Y18272D01*
G01X12689Y18326D01*
G01X12740Y18481D01*
G01X12844Y18585D01*
G01X13053Y18635D01*
G01X13312Y18635D01*
G01X13573Y18585D01*
G01X13728Y18481D01*
G01X13779Y18326D01*
G01X13779Y18221D01*
G01X13728Y18064D01*
G01X13624Y18013D01*

%LPD*%
G36*
G01X46941Y36195D02*
G01X46781Y36195D01*
G01X46781Y35806D01*
G01X46761Y35808D01*
G01X46057Y35808D01*
G01X46018Y35805D01*
G01X45983Y35794D01*
G01X45950Y35775D01*
G01X45920Y35750D01*
G01X45895Y35721D01*
G01X45876Y35688D01*
G01X45865Y35652D01*
G01X45862Y35613D01*
G01X45862Y35311D01*
G01X45865Y35272D01*
G01X45876Y35237D01*
G01X45895Y35204D01*
G01X45920Y35173D01*
G01X45950Y35148D01*
G01X45983Y35130D01*
G01X46018Y35119D01*
G01X46057Y35115D01*
G01X46941Y35115D01*
G01X46941Y36195D01*
G37*

%LPC*%
G36*
G01X46748Y35646D02*
G01X46057Y35646D01*
G01X46045Y35644D01*
G01X46040Y35642D01*
G01X46034Y35638D01*
G01X46030Y35633D01*
G01X46027Y35627D01*
G01X46025Y35620D01*
G01X46024Y35613D01*
G01X46024Y35311D01*
G01X46025Y35304D01*
G01X46027Y35298D01*
G01X46030Y35293D01*
G01X46034Y35288D01*
G01X46040Y35283D01*
G01X46045Y35280D01*
G01X46051Y35278D01*
G01X46754Y35278D01*
G01X46760Y35280D01*
G01X46766Y35283D01*
G01X46776Y35293D01*
G01X46779Y35298D01*
G01X46781Y35304D01*
G01X46781Y35620D01*
G01X46779Y35627D01*
G01X46776Y35633D01*
G01X46771Y35638D01*
G01X46766Y35642D01*
G01X46760Y35644D01*
G01X46748Y35646D01*
G37*

%LPD*%
G36*
G01X47988Y36195D02*
G01X47297Y36195D01*
G01X47259Y36191D01*
G01X47223Y36180D01*
G01X47190Y36163D01*
G01X47160Y36139D01*
G01X47135Y36108D01*
G01X47118Y36075D01*
G01X47107Y36038D01*
G01X47104Y35999D01*
G01X47104Y35768D01*
G01X47107Y35729D01*
G01X47118Y35693D01*
G01X47135Y35660D01*
G01X47160Y35631D01*
G01X47190Y35606D01*
G01X47223Y35589D01*
G01X47259Y35578D01*
G01X47297Y35575D01*
G01X47988Y35575D01*
G01X47994Y35574D01*
G01X48000Y35572D01*
G01X48006Y35569D01*
G01X48011Y35565D01*
G01X48015Y35560D01*
G01X48018Y35554D01*
G01X48020Y35548D01*
G01X48021Y35542D01*
G01X48021Y35311D01*
G01X48020Y35303D01*
G01X48018Y35296D01*
G01X48015Y35291D01*
G01X48011Y35285D01*
G01X48006Y35282D01*
G01X47994Y35278D01*
G01X47291Y35278D01*
G01X47279Y35282D01*
G01X47274Y35285D01*
G01X47269Y35291D01*
G01X47266Y35296D01*
G01X47264Y35303D01*
G01X47264Y35372D01*
G01X47104Y35372D01*
G01X47104Y35311D01*
G01X47107Y35271D01*
G01X47118Y35235D01*
G01X47135Y35201D01*
G01X47160Y35171D01*
G01X47190Y35146D01*
G01X47223Y35129D01*
G01X47259Y35119D01*
G01X47297Y35115D01*
G01X47988Y35115D01*
G01X48027Y35119D01*
G01X48063Y35129D01*
G01X48095Y35146D01*
G01X48125Y35171D01*
G01X48150Y35201D01*
G01X48169Y35235D01*
G01X48180Y35271D01*
G01X48183Y35311D01*
G01X48183Y35542D01*
G01X48180Y35580D01*
G01X48169Y35615D01*
G01X48150Y35648D01*
G01X48125Y35679D01*
G01X48095Y35703D01*
G01X48063Y35721D01*
G01X48027Y35731D01*
G01X47988Y35735D01*
G01X47291Y35735D01*
G01X47285Y35737D01*
G01X47279Y35740D01*
G01X47269Y35750D01*
G01X47266Y35756D01*
G01X47264Y35762D01*
G01X47264Y36006D01*
G01X47266Y36012D01*
G01X47269Y36018D01*
G01X47279Y36026D01*
G01X47285Y36029D01*
G01X47291Y36031D01*
G01X47297Y36032D01*
G01X47988Y36032D01*
G01X47994Y36031D01*
G01X48000Y36029D01*
G01X48006Y36026D01*
G01X48011Y36022D01*
G01X48015Y36018D01*
G01X48018Y36012D01*
G01X48020Y36006D01*
G01X48021Y35999D01*
G01X48021Y35935D01*
G01X48183Y35935D01*
G01X48183Y35999D01*
G01X48180Y36038D01*
G01X48169Y36075D01*
G01X48150Y36108D01*
G01X48125Y36139D01*
G01X48095Y36163D01*
G01X48063Y36180D01*
G01X48027Y36191D01*
G01X47988Y36195D01*
G37*

%LPD*%

%LPD*%
G36*
G01X31953Y36195D02*
G01X31790Y36195D01*
G01X31790Y35278D01*
G01X31330Y35278D01*
G01X31330Y35115D01*
G01X32410Y35115D01*
G01X32410Y35278D01*
G01X31953Y35278D01*
G01X31953Y36195D01*
G37*

%LPD*%
G36*
G01X33406Y36195D02*
G01X32717Y36195D01*
G01X32678Y36191D01*
G01X32642Y36180D01*
G01X32608Y36163D01*
G01X32578Y36139D01*
G01X32553Y36108D01*
G01X32535Y36075D01*
G01X32525Y36038D01*
G01X32522Y35999D01*
G01X32522Y35115D01*
G01X32684Y35115D01*
G01X32684Y35999D01*
G01X32685Y36006D01*
G01X32687Y36012D01*
G01X32690Y36018D01*
G01X32698Y36026D01*
G01X32704Y36029D01*
G01X32710Y36031D01*
G01X32717Y36032D01*
G01X33406Y36032D01*
G01X33413Y36031D01*
G01X33420Y36029D01*
G01X33425Y36026D01*
G01X33431Y36022D01*
G01X33435Y36018D01*
G01X33437Y36012D01*
G01X33438Y36006D01*
G01X33439Y35999D01*
G01X33439Y35115D01*
G01X33601Y35115D01*
G01X33601Y35999D01*
G01X33598Y36038D01*
G01X33587Y36075D01*
G01X33570Y36108D01*
G01X33545Y36139D01*
G01X33515Y36163D01*
G01X33481Y36180D01*
G01X33445Y36191D01*
G01X33406Y36195D01*
G37*

%LPD*%
G36*
G01X34648Y36195D02*
G01X33959Y36195D01*
G01X33920Y36191D01*
G01X33884Y36180D01*
G01X33850Y36163D01*
G01X33820Y36139D01*
G01X33795Y36108D01*
G01X33778Y36075D01*
G01X33767Y36038D01*
G01X33764Y35999D01*
G01X33764Y35311D01*
G01X33767Y35271D01*
G01X33778Y35235D01*
G01X33795Y35201D01*
G01X33820Y35171D01*
G01X33850Y35146D01*
G01X33884Y35129D01*
G01X33920Y35119D01*
G01X33959Y35115D01*
G01X34648Y35115D01*
G01X34687Y35119D01*
G01X34723Y35129D01*
G01X34757Y35146D01*
G01X34787Y35171D01*
G01X34812Y35201D01*
G01X34830Y35235D01*
G01X34840Y35271D01*
G01X34843Y35311D01*
G01X34843Y35999D01*
G01X34840Y36038D01*
G01X34830Y36075D01*
G01X34812Y36108D01*
G01X34787Y36139D01*
G01X34757Y36163D01*
G01X34723Y36180D01*
G01X34687Y36191D01*
G01X34648Y36195D01*
G37*

%LPC*%
G36*
G01X34648Y36032D02*
G01X33959Y36032D01*
G01X33952Y36031D01*
G01X33946Y36029D01*
G01X33941Y36026D01*
G01X33936Y36022D01*
G01X33932Y36018D01*
G01X33929Y36012D01*
G01X33927Y36006D01*
G01X33926Y35999D01*
G01X33926Y35311D01*
G01X33927Y35303D01*
G01X33929Y35296D01*
G01X33932Y35291D01*
G01X33936Y35285D01*
G01X33941Y35282D01*
G01X33946Y35280D01*
G01X33952Y35278D01*
G01X34655Y35278D01*
G01X34661Y35280D01*
G01X34666Y35282D01*
G01X34671Y35285D01*
G01X34675Y35291D01*
G01X34678Y35296D01*
G01X34680Y35303D01*
G01X34681Y35311D01*
G01X34681Y35999D01*
G01X34680Y36006D01*
G01X34678Y36012D01*
G01X34675Y36018D01*
G01X34671Y36022D01*
G01X34666Y36026D01*
G01X34661Y36029D01*
G01X34655Y36031D01*
G01X34648Y36032D01*
G37*

%LPD*%
G01X12816Y13335D02*
G01X13906Y13335D01*
G01X12816Y13335D02*
G01X12816Y13802D01*
G01X12867Y13957D01*
G01X12920Y14010D01*
G01X13025Y14061D01*
G01X13180Y14061D01*
G01X13284Y14010D01*
G01X13335Y13957D01*
G01X13388Y13802D01*
G01X13388Y13335D01*
G01X12816Y15029D02*
G01X12816Y14508D01*
G01X13284Y14457D01*
G01X13233Y14508D01*
G01X13180Y14665D01*
G01X13180Y14820D01*
G01X13233Y14975D01*
G01X13335Y15079D01*
G01X13492Y15133D01*
G01X13596Y15133D01*
G01X13751Y15079D01*
G01X13855Y14975D01*
G01X13906Y14820D01*
G01X13906Y14665D01*
G01X13855Y14508D01*
G01X13804Y14457D01*
G01X13700Y14404D01*
G01X12689Y35433D02*
G01X13779Y35433D01*
G01X12689Y35433D02*
G01X12689Y35900D01*
G01X12740Y36055D01*
G01X12793Y36108D01*
G01X12898Y36159D01*
G01X13053Y36159D01*
G01X13157Y36108D01*
G01X13208Y36055D01*
G01X13261Y35900D01*
G01X13261Y35433D01*
G01X12948Y36555D02*
G01X12898Y36555D01*
G01X12793Y36606D01*
G01X12740Y36659D01*
G01X12689Y36763D01*
G01X12689Y36969D01*
G01X12740Y37073D01*
G01X12793Y37127D01*
G01X12898Y37177D01*
G01X13002Y37177D01*
G01X13106Y37127D01*
G01X13261Y37023D01*
G01X13779Y36502D01*
G01X13779Y37231D01*

%LPD*%
G36*
G01X16476Y36068D02*
G01X16286Y36068D01*
G01X16286Y34988D01*
G01X16449Y34988D01*
G01X16449Y35852D01*
G01X17172Y34988D01*
G01X17365Y34988D01*
G01X17365Y36068D01*
G01X17203Y36068D01*
G01X17203Y35204D01*
G01X16476Y36068D01*
G37*

%LPD*%
G36*
G01X17693Y36068D02*
G01X17533Y36068D01*
G01X17533Y34988D01*
G01X17693Y34988D01*
G01X17693Y36068D01*
G37*

%LPD*%
G54D35*
G75*
G01X-15409Y8873D02*
G03X-15398Y8873I-1J-1000D01*
G01*
G75*
G01X-15536Y31098D02*
G03X-15525Y31098I-1J-1000D01*
G01*
M00*
M02*
