G04 Layer: BottomSolderMaskLayer*
G04 EasyEDA v6.4.7, 2020-11-20T18:15:40+05:30*
G04 2bd19a94ae5149c988909f382a05baad,5a8210e43a1b4091af5044d7901ac753,10*
G04 Gerber Generator version 0.2*
G04 Scale: 100 percent, Rotated: No, Reflected: No *
G04 Dimensions in millimeters *
G04 leading zeros omitted , absolute positions ,3 integer and 3 decimal *
%FSLAX33Y33*%
%MOMM*%
G90*
D02*

%ADD39C,3.703320*%
%ADD40R,1.778000X1.778000*%
%ADD41C,1.778000*%
%ADD42C,1.727200*%
%ADD44C,1.703324*%
%ADD46C,1.701800*%
%ADD48C,1.803400*%

%LPD*%
G54D39*
G01X7277Y2774D02*
G01X8778Y2774D01*
G01X7277Y12973D02*
G01X8778Y12973D01*
G01X7150Y24999D02*
G01X8651Y24999D01*
G01X7150Y35198D02*
G01X8651Y35198D01*
G36*
G01X56896Y34671D02*
G01X56896Y36449D01*
G01X58674Y36449D01*
G01X58674Y34671D01*
G01X56896Y34671D01*
G37*
G54D41*
G01X60325Y35560D03*
G36*
G01X292Y27025D02*
G01X292Y28321D01*
G01X2654Y28321D01*
G01X2654Y27025D01*
G01X292Y27025D01*
G37*
G36*
G01X292Y29337D02*
G01X292Y30632D01*
G01X2654Y30632D01*
G01X2654Y29337D01*
G01X292Y29337D01*
G37*
G36*
G01X292Y31623D02*
G01X292Y32918D01*
G01X2654Y32918D01*
G01X2654Y31623D01*
G01X292Y31623D01*
G37*
G36*
G01X6489Y28130D02*
G01X6489Y31838D01*
G01X8851Y31838D01*
G01X8851Y28130D01*
G01X6489Y28130D01*
G37*
G36*
G01X34053Y10934D02*
G01X34053Y12687D01*
G01X35257Y12687D01*
G01X35257Y10934D01*
G01X34053Y10934D01*
G37*
G36*
G01X32052Y10934D02*
G01X32052Y12687D01*
G01X33256Y12687D01*
G01X33256Y10934D01*
G01X32052Y10934D01*
G37*
G36*
G01X28051Y20995D02*
G01X28051Y23197D01*
G01X29855Y23197D01*
G01X29855Y20995D01*
G01X28051Y20995D01*
G37*
G36*
G01X30850Y20995D02*
G01X30850Y23197D01*
G01X32654Y23197D01*
G01X32654Y20995D01*
G01X30850Y20995D01*
G37*
G36*
G01X28432Y4358D02*
G01X28432Y6560D01*
G01X30236Y6560D01*
G01X30236Y4358D01*
G01X28432Y4358D01*
G37*
G36*
G01X31231Y4358D02*
G01X31231Y6560D01*
G01X33035Y6560D01*
G01X33035Y4358D01*
G01X31231Y4358D01*
G37*
G36*
G01X41536Y21140D02*
G01X41536Y22242D01*
G01X42539Y22242D01*
G01X42539Y21140D01*
G01X41536Y21140D01*
G37*
G36*
G01X42476Y23223D02*
G01X42476Y24325D01*
G01X43477Y24325D01*
G01X43477Y23223D01*
G01X42476Y23223D01*
G37*
G36*
G01X40596Y23223D02*
G01X40596Y24325D01*
G01X41600Y24325D01*
G01X41600Y23223D01*
G01X40596Y23223D01*
G37*
G36*
G01X29004Y18046D02*
G01X29004Y19799D01*
G01X30208Y19799D01*
G01X30208Y18046D01*
G01X29004Y18046D01*
G37*
G36*
G01X31005Y18046D02*
G01X31005Y19799D01*
G01X32209Y19799D01*
G01X32209Y18046D01*
G01X31005Y18046D01*
G37*
G36*
G01X39126Y18163D02*
G01X39126Y18765D01*
G01X40429Y18765D01*
G01X40429Y18163D01*
G01X39126Y18163D01*
G37*
G36*
G01X39126Y18798D02*
G01X39126Y19400D01*
G01X40429Y19400D01*
G01X40429Y18798D01*
G01X39126Y18798D01*
G37*
G36*
G01X39126Y19458D02*
G01X39126Y20060D01*
G01X40429Y20060D01*
G01X40429Y19458D01*
G01X39126Y19458D01*
G37*
G36*
G01X39126Y20093D02*
G01X39126Y20695D01*
G01X40429Y20695D01*
G01X40429Y20093D01*
G01X39126Y20093D01*
G37*
G36*
G01X43644Y20093D02*
G01X43644Y20695D01*
G01X44947Y20695D01*
G01X44947Y20093D01*
G01X43644Y20093D01*
G37*
G36*
G01X43644Y19458D02*
G01X43644Y20060D01*
G01X44947Y20060D01*
G01X44947Y19458D01*
G01X43644Y19458D01*
G37*
G36*
G01X43644Y18798D02*
G01X43644Y19400D01*
G01X44947Y19400D01*
G01X44947Y18798D01*
G01X43644Y18798D01*
G37*
G36*
G01X43644Y18163D02*
G01X43644Y18765D01*
G01X44947Y18765D01*
G01X44947Y18163D01*
G01X43644Y18163D01*
G37*
G36*
G01X36207Y20464D02*
G01X36207Y21668D01*
G01X37960Y21668D01*
G01X37960Y20464D01*
G01X36207Y20464D01*
G37*
G36*
G01X36207Y18463D02*
G01X36207Y19667D01*
G01X37960Y19667D01*
G01X37960Y18463D01*
G01X36207Y18463D01*
G37*
G36*
G01X33667Y20464D02*
G01X33667Y21668D01*
G01X35420Y21668D01*
G01X35420Y20464D01*
G01X33667Y20464D01*
G37*
G36*
G01X33667Y18463D02*
G01X33667Y19667D01*
G01X35420Y19667D01*
G01X35420Y18463D01*
G01X33667Y18463D01*
G37*
G36*
G01X17035Y23888D02*
G01X17035Y25641D01*
G01X18239Y25641D01*
G01X18239Y23888D01*
G01X17035Y23888D01*
G37*
G36*
G01X15034Y23888D02*
G01X15034Y25641D01*
G01X16238Y25641D01*
G01X16238Y23888D01*
G01X15034Y23888D01*
G37*
G36*
G01X23766Y16014D02*
G01X23766Y17767D01*
G01X24970Y17767D01*
G01X24970Y16014D01*
G01X23766Y16014D01*
G37*
G36*
G01X21765Y16014D02*
G01X21765Y17767D01*
G01X22969Y17767D01*
G01X22969Y16014D01*
G01X21765Y16014D01*
G37*
G36*
G01X34932Y5316D02*
G01X34932Y6418D01*
G01X35935Y6418D01*
G01X35935Y5316D01*
G01X34932Y5316D01*
G37*
G36*
G01X33992Y3233D02*
G01X33992Y4335D01*
G01X34996Y4335D01*
G01X34996Y3233D01*
G01X33992Y3233D01*
G37*
G36*
G01X35872Y3233D02*
G01X35872Y4335D01*
G01X36873Y4335D01*
G01X36873Y3233D01*
G01X35872Y3233D01*
G37*
G36*
G01X29131Y7759D02*
G01X29131Y9512D01*
G01X30335Y9512D01*
G01X30335Y7759D01*
G01X29131Y7759D01*
G37*
G36*
G01X31132Y7759D02*
G01X31132Y9512D01*
G01X32336Y9512D01*
G01X32336Y7759D01*
G01X31132Y7759D01*
G37*
G36*
G01X35826Y9288D02*
G01X35826Y10492D01*
G01X37579Y10492D01*
G01X37579Y9288D01*
G01X35826Y9288D01*
G37*
G36*
G01X35826Y7287D02*
G01X35826Y8491D01*
G01X37579Y8491D01*
G01X37579Y7287D01*
G01X35826Y7287D01*
G37*
G36*
G01X38620Y9288D02*
G01X38620Y10492D01*
G01X40373Y10492D01*
G01X40373Y9288D01*
G01X38620Y9288D01*
G37*
G36*
G01X38620Y7287D02*
G01X38620Y8491D01*
G01X40373Y8491D01*
G01X40373Y7287D01*
G01X38620Y7287D01*
G37*
G36*
G01X13855Y8145D02*
G01X13855Y9349D01*
G01X15608Y9349D01*
G01X15608Y8145D01*
G01X13855Y8145D01*
G37*
G36*
G01X13855Y6144D02*
G01X13855Y7348D01*
G01X15608Y7348D01*
G01X15608Y6144D01*
G01X13855Y6144D01*
G37*
G36*
G01X21892Y10934D02*
G01X21892Y12687D01*
G01X23096Y12687D01*
G01X23096Y10934D01*
G01X21892Y10934D01*
G37*
G36*
G01X23893Y10934D02*
G01X23893Y12687D01*
G01X25097Y12687D01*
G01X25097Y10934D01*
G01X23893Y10934D01*
G37*
G36*
G01X40218Y5260D02*
G01X40218Y6014D01*
G01X41620Y6014D01*
G01X41620Y5260D01*
G01X40218Y5260D01*
G37*
G36*
G01X40218Y4320D02*
G01X40218Y5074D01*
G01X41620Y5074D01*
G01X41620Y4320D01*
G01X40218Y4320D01*
G37*
G36*
G01X40218Y3380D02*
G01X40218Y4135D01*
G01X41620Y4135D01*
G01X41620Y3380D01*
G01X40218Y3380D01*
G37*
G36*
G01X37627Y3380D02*
G01X37627Y4135D01*
G01X39029Y4135D01*
G01X39029Y3380D01*
G01X37627Y3380D01*
G37*
G36*
G01X37627Y5260D02*
G01X37627Y6014D01*
G01X39029Y6014D01*
G01X39029Y5260D01*
G01X37627Y5260D01*
G37*
G36*
G01X7668Y20459D02*
G01X7668Y22212D01*
G01X8872Y22212D01*
G01X8872Y20459D01*
G01X7668Y20459D01*
G37*
G36*
G01X9669Y20459D02*
G01X9669Y22212D01*
G01X10873Y22212D01*
G01X10873Y20459D01*
G01X9669Y20459D01*
G37*
G36*
G01X520Y18559D02*
G01X520Y19763D01*
G01X2273Y19763D01*
G01X2273Y18559D01*
G01X520Y18559D01*
G37*
G36*
G01X520Y16558D02*
G01X520Y17762D01*
G01X2273Y17762D01*
G01X2273Y16558D01*
G01X520Y16558D01*
G37*
G36*
G01X7668Y15760D02*
G01X7668Y17513D01*
G01X8872Y17513D01*
G01X8872Y15760D01*
G01X7668Y15760D01*
G37*
G36*
G01X9669Y15760D02*
G01X9669Y17513D01*
G01X10873Y17513D01*
G01X10873Y15760D01*
G01X9669Y15760D01*
G37*
G54D42*
G01X62808Y14456D03*
G01X60268Y14456D03*
G01X57728Y14456D03*
G01X55188Y14456D03*
G01X52648Y14456D03*
G01X50108Y14456D03*
G01X47568Y14456D03*
G01X45028Y14456D03*
G01X42488Y14456D03*
G01X39948Y14456D03*
G01X37408Y14456D03*
G01X34868Y14456D03*
G01X32328Y14456D03*
G01X29788Y14456D03*
G01X27248Y14456D03*
G01X24708Y14456D03*
G01X22168Y14456D03*
G01X19628Y14456D03*
G01X17088Y14456D03*
G36*
G01X64485Y28834D02*
G01X64485Y30561D01*
G01X66212Y30561D01*
G01X66212Y28834D01*
G01X64485Y28834D01*
G37*
G01X62808Y29696D03*
G01X60268Y29696D03*
G01X57728Y29696D03*
G01X55188Y29696D03*
G01X52648Y29696D03*
G01X50108Y29696D03*
G01X47568Y29696D03*
G01X45028Y29696D03*
G01X42488Y29696D03*
G01X39948Y29696D03*
G01X37408Y29696D03*
G01X34868Y29696D03*
G01X32328Y29696D03*
G01X29788Y29696D03*
G01X27248Y29696D03*
G01X24708Y29696D03*
G01X22168Y29696D03*
G01X19628Y29696D03*
G01X17088Y29696D03*
G36*
G01X64485Y13594D02*
G01X64485Y15321D01*
G01X66212Y15321D01*
G01X66212Y13594D01*
G01X64485Y13594D01*
G37*
G36*
G01X41285Y8257D02*
G01X41285Y8859D01*
G01X42588Y8859D01*
G01X42588Y8257D01*
G01X41285Y8257D01*
G37*
G36*
G01X41285Y8892D02*
G01X41285Y9494D01*
G01X42588Y9494D01*
G01X42588Y8892D01*
G01X41285Y8892D01*
G37*
G36*
G01X41285Y9552D02*
G01X41285Y10154D01*
G01X42588Y10154D01*
G01X42588Y9552D01*
G01X41285Y9552D01*
G37*
G36*
G01X41285Y10187D02*
G01X41285Y10789D01*
G01X42588Y10789D01*
G01X42588Y10187D01*
G01X41285Y10187D01*
G37*
G36*
G01X45803Y10187D02*
G01X45803Y10789D01*
G01X47106Y10789D01*
G01X47106Y10187D01*
G01X45803Y10187D01*
G37*
G36*
G01X45803Y9552D02*
G01X45803Y10154D01*
G01X47106Y10154D01*
G01X47106Y9552D01*
G01X45803Y9552D01*
G37*
G36*
G01X45803Y8892D02*
G01X45803Y9494D01*
G01X47106Y9494D01*
G01X47106Y8892D01*
G01X45803Y8892D01*
G37*
G36*
G01X45803Y8257D02*
G01X45803Y8859D01*
G01X47106Y8859D01*
G01X47106Y8257D01*
G01X45803Y8257D01*
G37*
G54D44*
G01X10414Y18923D03*
G01X7874Y18923D03*
G36*
G01X4483Y18072D02*
G01X4483Y19773D01*
G01X6184Y19773D01*
G01X6184Y18072D01*
G01X4483Y18072D01*
G37*
G54D40*
G01X52705Y35560D03*
G54D41*
G01X50165Y35560D03*
G54D46*
G01X43942Y35560D03*
G01X41402Y35560D03*
G01X38862Y35560D03*
G36*
G01X35471Y34709D02*
G01X35471Y36410D01*
G01X37172Y36410D01*
G01X37172Y34709D01*
G01X35471Y34709D01*
G37*
G54D48*
G01X12292Y7872D03*
G01X12292Y5373D03*
G01X12165Y30097D03*
G01X12165Y27598D03*
G54D46*
G01X29845Y35560D03*
G01X27305Y35560D03*
G01X24765Y35560D03*
G01X22225Y35560D03*
G36*
G01X18834Y34709D02*
G01X18834Y36410D01*
G01X20535Y36410D01*
G01X20535Y34709D01*
G01X18834Y34709D01*
G37*
G36*
G01X24892Y20891D02*
G01X24892Y22796D01*
G01X27294Y22796D01*
G01X27294Y20891D01*
G01X24892Y20891D01*
G37*
G36*
G01X24892Y18351D02*
G01X24892Y20256D01*
G01X27294Y20256D01*
G01X27294Y18351D01*
G01X24892Y18351D01*
G37*
G36*
G01X16393Y18351D02*
G01X16393Y20256D01*
G01X18796Y20256D01*
G01X18796Y18351D01*
G01X16393Y18351D01*
G37*
G36*
G01X16393Y20891D02*
G01X16393Y22796D01*
G01X18796Y22796D01*
G01X18796Y20891D01*
G01X16393Y20891D01*
G37*
G36*
G01X24892Y7937D02*
G01X24892Y9842D01*
G01X27294Y9842D01*
G01X27294Y7937D01*
G01X24892Y7937D01*
G37*
G36*
G01X24892Y5397D02*
G01X24892Y7302D01*
G01X27294Y7302D01*
G01X27294Y5397D01*
G01X24892Y5397D01*
G37*
G36*
G01X16393Y5397D02*
G01X16393Y7302D01*
G01X18796Y7302D01*
G01X18796Y5397D01*
G01X16393Y5397D01*
G37*
G36*
G01X16393Y7937D02*
G01X16393Y9842D01*
G01X18796Y9842D01*
G01X18796Y7937D01*
G01X16393Y7937D01*
G37*
M00*
M02*
