G04 Layer: BottomPasteMaskLayer*
G04 EasyEDA v6.4.7, 2020-11-20T18:15:40+05:30*
G04 2bd19a94ae5149c988909f382a05baad,5a8210e43a1b4091af5044d7901ac753,10*
G04 Gerber Generator version 0.2*
G04 Scale: 100 percent, Rotated: No, Reflected: No *
G04 Dimensions in millimeters *
G04 leading zeros omitted , absolute positions ,3 integer and 3 decimal *
%FSLAX33Y33*%
%MOMM*%
G90*
D02*


%LPD*%
G36*
G01X2552Y27127D02*
G01X2552Y28219D01*
G01X393Y28219D01*
G01X393Y27127D01*
G01X2552Y27127D01*
G37*
G36*
G01X2552Y29438D02*
G01X2552Y30530D01*
G01X393Y30530D01*
G01X393Y29438D01*
G01X2552Y29438D01*
G37*
G36*
G01X2552Y31724D02*
G01X2552Y32816D01*
G01X393Y32816D01*
G01X393Y31724D01*
G01X2552Y31724D01*
G37*
G36*
G01X8750Y28232D02*
G01X8750Y31737D01*
G01X6591Y31737D01*
G01X6591Y28232D01*
G01X8750Y28232D01*
G37*
G36*
G01X35154Y12586D02*
G01X34154Y12586D01*
G01X34154Y11035D01*
G01X35154Y11035D01*
G01X35154Y12586D01*
G37*
G36*
G01X33155Y12586D02*
G01X32155Y12586D01*
G01X32155Y11035D01*
G01X33155Y11035D01*
G01X33155Y12586D01*
G37*
G36*
G01X28153Y21098D02*
G01X29753Y21098D01*
G01X29753Y23097D01*
G01X28153Y23097D01*
G01X28153Y21098D01*
G37*
G36*
G01X30952Y21098D02*
G01X32552Y21098D01*
G01X32552Y23097D01*
G01X30952Y23097D01*
G01X30952Y21098D01*
G37*
G36*
G01X28534Y4461D02*
G01X30134Y4461D01*
G01X30134Y6460D01*
G01X28534Y6460D01*
G01X28534Y4461D01*
G37*
G36*
G01X31333Y4461D02*
G01X32933Y4461D01*
G01X32933Y6460D01*
G01X31333Y6460D01*
G01X31333Y4461D01*
G37*
G36*
G01X41636Y21242D02*
G01X42437Y21242D01*
G01X42437Y22141D01*
G01X41636Y22141D01*
G01X41636Y21242D01*
G37*
G36*
G01X42576Y23324D02*
G01X43376Y23324D01*
G01X43376Y24223D01*
G01X42576Y24223D01*
G01X42576Y23324D01*
G37*
G36*
G01X40697Y23324D02*
G01X41497Y23324D01*
G01X41497Y24223D01*
G01X40697Y24223D01*
G01X40697Y23324D01*
G37*
G36*
G01X29107Y18147D02*
G01X30107Y18147D01*
G01X30107Y19698D01*
G01X29107Y19698D01*
G01X29107Y18147D01*
G37*
G36*
G01X31106Y18147D02*
G01X32106Y18147D01*
G01X32106Y19698D01*
G01X31106Y19698D01*
G01X31106Y18147D01*
G37*
G36*
G01X40326Y18266D02*
G01X40326Y18665D01*
G01X39226Y18665D01*
G01X39226Y18266D01*
G01X40326Y18266D01*
G37*
G36*
G01X40326Y18901D02*
G01X40326Y19300D01*
G01X39226Y19300D01*
G01X39226Y18901D01*
G01X40326Y18901D01*
G37*
G36*
G01X40326Y19561D02*
G01X40326Y19960D01*
G01X39226Y19960D01*
G01X39226Y19561D01*
G01X40326Y19561D01*
G37*
G36*
G01X40326Y20196D02*
G01X40326Y20595D01*
G01X39226Y20595D01*
G01X39226Y20196D01*
G01X40326Y20196D01*
G37*
G36*
G01X44847Y20196D02*
G01X44847Y20595D01*
G01X43747Y20595D01*
G01X43747Y20196D01*
G01X44847Y20196D01*
G37*
G36*
G01X44847Y19561D02*
G01X44847Y19960D01*
G01X43747Y19960D01*
G01X43747Y19561D01*
G01X44847Y19561D01*
G37*
G36*
G01X44847Y18901D02*
G01X44847Y19300D01*
G01X43747Y19300D01*
G01X43747Y18901D01*
G01X44847Y18901D01*
G37*
G36*
G01X44847Y18266D02*
G01X44847Y18665D01*
G01X43747Y18665D01*
G01X43747Y18266D01*
G01X44847Y18266D01*
G37*
G36*
G01X36308Y21565D02*
G01X36308Y20565D01*
G01X37859Y20565D01*
G01X37859Y21565D01*
G01X36308Y21565D01*
G37*
G36*
G01X36308Y19566D02*
G01X36308Y18566D01*
G01X37859Y18566D01*
G01X37859Y19566D01*
G01X36308Y19566D01*
G37*
G36*
G01X33768Y21565D02*
G01X33768Y20565D01*
G01X35319Y20565D01*
G01X35319Y21565D01*
G01X33768Y21565D01*
G37*
G36*
G01X33768Y19566D02*
G01X33768Y18566D01*
G01X35319Y18566D01*
G01X35319Y19566D01*
G01X33768Y19566D01*
G37*
G36*
G01X18136Y25540D02*
G01X17136Y25540D01*
G01X17136Y23989D01*
G01X18136Y23989D01*
G01X18136Y25540D01*
G37*
G36*
G01X16137Y25540D02*
G01X15137Y25540D01*
G01X15137Y23989D01*
G01X16137Y23989D01*
G01X16137Y25540D01*
G37*
G36*
G01X24867Y17666D02*
G01X23867Y17666D01*
G01X23867Y16115D01*
G01X24867Y16115D01*
G01X24867Y17666D01*
G37*
G36*
G01X22868Y17666D02*
G01X21868Y17666D01*
G01X21868Y16115D01*
G01X22868Y16115D01*
G01X22868Y17666D01*
G37*
G36*
G01X35833Y6316D02*
G01X35032Y6316D01*
G01X35032Y5417D01*
G01X35833Y5417D01*
G01X35833Y6316D01*
G37*
G36*
G01X34893Y4234D02*
G01X34093Y4234D01*
G01X34093Y3335D01*
G01X34893Y3335D01*
G01X34893Y4234D01*
G37*
G36*
G01X36772Y4234D02*
G01X35972Y4234D01*
G01X35972Y3335D01*
G01X36772Y3335D01*
G01X36772Y4234D01*
G37*
G36*
G01X29234Y7860D02*
G01X30234Y7860D01*
G01X30234Y9411D01*
G01X29234Y9411D01*
G01X29234Y7860D01*
G37*
G36*
G01X31233Y7860D02*
G01X32233Y7860D01*
G01X32233Y9411D01*
G01X31233Y9411D01*
G01X31233Y7860D01*
G37*
G36*
G01X35927Y10389D02*
G01X35927Y9389D01*
G01X37478Y9389D01*
G01X37478Y10389D01*
G01X35927Y10389D01*
G37*
G36*
G01X35927Y8390D02*
G01X35927Y7390D01*
G01X37478Y7390D01*
G01X37478Y8390D01*
G01X35927Y8390D01*
G37*
G36*
G01X38721Y10389D02*
G01X38721Y9389D01*
G01X40272Y9389D01*
G01X40272Y10389D01*
G01X38721Y10389D01*
G37*
G36*
G01X38721Y8390D02*
G01X38721Y7390D01*
G01X40272Y7390D01*
G01X40272Y8390D01*
G01X38721Y8390D01*
G37*
G36*
G01X13956Y9246D02*
G01X13956Y8246D01*
G01X15507Y8246D01*
G01X15507Y9246D01*
G01X13956Y9246D01*
G37*
G36*
G01X13956Y7247D02*
G01X13956Y6247D01*
G01X15507Y6247D01*
G01X15507Y7247D01*
G01X13956Y7247D01*
G37*
G36*
G01X21995Y11035D02*
G01X22995Y11035D01*
G01X22995Y12586D01*
G01X21995Y12586D01*
G01X21995Y11035D01*
G37*
G36*
G01X23994Y11035D02*
G01X24994Y11035D01*
G01X24994Y12586D01*
G01X23994Y12586D01*
G01X23994Y11035D01*
G37*
G36*
G01X40319Y5914D02*
G01X40319Y5363D01*
G01X41518Y5363D01*
G01X41518Y5914D01*
G01X40319Y5914D01*
G37*
G36*
G01X40319Y4974D02*
G01X40319Y4423D01*
G01X41518Y4423D01*
G01X41518Y4974D01*
G01X40319Y4974D01*
G37*
G36*
G01X40319Y4034D02*
G01X40319Y3483D01*
G01X41518Y3483D01*
G01X41518Y4034D01*
G01X40319Y4034D01*
G37*
G36*
G01X37729Y4034D02*
G01X37729Y3483D01*
G01X38928Y3483D01*
G01X38928Y4034D01*
G01X37729Y4034D01*
G37*
G36*
G01X37729Y5914D02*
G01X37729Y5363D01*
G01X38928Y5363D01*
G01X38928Y5914D01*
G01X37729Y5914D01*
G37*
G36*
G01X7771Y20560D02*
G01X8771Y20560D01*
G01X8771Y22111D01*
G01X7771Y22111D01*
G01X7771Y20560D01*
G37*
G36*
G01X9770Y20560D02*
G01X10770Y20560D01*
G01X10770Y22111D01*
G01X9770Y22111D01*
G01X9770Y20560D01*
G37*
G36*
G01X621Y19660D02*
G01X621Y18660D01*
G01X2172Y18660D01*
G01X2172Y19660D01*
G01X621Y19660D01*
G37*
G36*
G01X621Y17661D02*
G01X621Y16661D01*
G01X2172Y16661D01*
G01X2172Y17661D01*
G01X621Y17661D01*
G37*
G36*
G01X7771Y15861D02*
G01X8771Y15861D01*
G01X8771Y17412D01*
G01X7771Y17412D01*
G01X7771Y15861D01*
G37*
G36*
G01X9770Y15861D02*
G01X10770Y15861D01*
G01X10770Y17412D01*
G01X9770Y17412D01*
G01X9770Y15861D01*
G37*
G36*
G01X42485Y8360D02*
G01X42485Y8759D01*
G01X41385Y8759D01*
G01X41385Y8360D01*
G01X42485Y8360D01*
G37*
G36*
G01X42485Y8995D02*
G01X42485Y9394D01*
G01X41385Y9394D01*
G01X41385Y8995D01*
G01X42485Y8995D01*
G37*
G36*
G01X42485Y9655D02*
G01X42485Y10054D01*
G01X41385Y10054D01*
G01X41385Y9655D01*
G01X42485Y9655D01*
G37*
G36*
G01X42485Y10290D02*
G01X42485Y10689D01*
G01X41385Y10689D01*
G01X41385Y10290D01*
G01X42485Y10290D01*
G37*
G36*
G01X47006Y10290D02*
G01X47006Y10689D01*
G01X45906Y10689D01*
G01X45906Y10290D01*
G01X47006Y10290D01*
G37*
G36*
G01X47006Y9655D02*
G01X47006Y10054D01*
G01X45906Y10054D01*
G01X45906Y9655D01*
G01X47006Y9655D01*
G37*
G36*
G01X47006Y8995D02*
G01X47006Y9394D01*
G01X45906Y9394D01*
G01X45906Y8995D01*
G01X47006Y8995D01*
G37*
G36*
G01X47006Y8360D02*
G01X47006Y8759D01*
G01X45906Y8759D01*
G01X45906Y8360D01*
G01X47006Y8360D01*
G37*
G36*
G01X27193Y22694D02*
G01X24993Y22694D01*
G01X24993Y20993D01*
G01X27193Y20993D01*
G01X27193Y22694D01*
G37*
G36*
G01X27193Y20154D02*
G01X24993Y20154D01*
G01X24993Y18453D01*
G01X27193Y18453D01*
G01X27193Y20154D01*
G37*
G36*
G01X18694Y20154D02*
G01X16494Y20154D01*
G01X16494Y18453D01*
G01X18694Y18453D01*
G01X18694Y20154D01*
G37*
G36*
G01X18694Y22694D02*
G01X16494Y22694D01*
G01X16494Y20993D01*
G01X18694Y20993D01*
G01X18694Y22694D01*
G37*
G36*
G01X27193Y9740D02*
G01X24993Y9740D01*
G01X24993Y8039D01*
G01X27193Y8039D01*
G01X27193Y9740D01*
G37*
G36*
G01X27193Y7200D02*
G01X24993Y7200D01*
G01X24993Y5499D01*
G01X27193Y5499D01*
G01X27193Y7200D01*
G37*
G36*
G01X18694Y7200D02*
G01X16494Y7200D01*
G01X16494Y5499D01*
G01X18694Y5499D01*
G01X18694Y7200D01*
G37*
G36*
G01X18694Y9740D02*
G01X16494Y9740D01*
G01X16494Y8039D01*
G01X18694Y8039D01*
G01X18694Y9740D01*
G37*
M00*
M02*
