;Layer: Drill PTH
;EasyEDA v6.4.7, 2020-11-20T18:15:40+05:30
;2bd19a94ae5149c988909f382a05baad,5a8210e43a1b4091af5044d7901ac753,10
;Gerber Generator version 0.2
M48
METRIC,LZ,000.000
;Holesize 1 = 0.305 METRIC
T01C0.305
;Holesize 2 = 0.701 METRIC
T02C0.701
;Holesize 3 = 0.889 METRIC
T03C0.889
;Holesize 4 = 0.915 METRIC
T04C0.915
;Holesize 5 = 1.001 METRIC
T05C1.001
;Holesize 6 = 2.200 METRIC
T06C2.200
%
G05
G90
T01
X+003175Y+032512
X+042545Y+025781
X+042545Y+025781
X+045974Y+025781
X+045085Y+021971
X+045466Y+019050
X+010270Y+021336
X+024130Y+007112
X+033655Y+013335
X+037084Y+002921
X+042037Y+004699
X+041021Y+011049
X+040259Y+021590
X+027813Y+017780
X+042037Y+003810
X+043815Y+003810
X+032893Y+020066
X+032893Y+018288
X+020193Y+020955
X+020193Y+022733
X+039497Y+005588
X+018415Y+023241
X+016637Y+023241
X+014859Y+023241
X+020701Y+001651
X+032512Y+001651
X+048768Y+001651
X+051816Y+010795
X+064008Y+010033
X+063627Y+001905
X+055118Y+005842
X+058547Y+025527
X+049784Y+027305
X+045339Y+031750
X+040513Y+033274
X+038989Y+024892
X+032766Y+026670
X+021336Y+027305
X+026162Y+027432
X+016256Y+028448
X+016383Y+031877
X+015367Y+036703
X+049911Y+016637
X+057912Y+017272
X+065659Y+016256
X+065151Y+036576
X+055372Y+035687
X+046101Y+036957
X+048133Y+033401
X+056134Y+031496
X+053594Y+025654
X+062357Y+027686
X+064643Y+018542
X+061468Y+015621
X+053467Y+018288
X+021209Y+031623
X+030734Y+031496
X+036957Y+031623
X+065405Y+012827
X+061006Y+012827
X+015367Y+034290
X+044450Y+017780
X+043053Y+024638
X+044450Y+017780
X+058928Y+015621
X+058547Y+018557
X+064460Y+025557
X+034290Y+034671
X+031750Y+034544
X+061595Y+021844
X+047498Y+020447
X+049911Y+021844
X+047117Y+019050
X+046736Y+021971
T02
X+010411Y+018923G85X+010416Y+018923
X+007871Y+018923G85X+007876Y+018923
X+005331Y+018923G85X+005336Y+018923
T03
X+057785Y+035560
X+060325Y+035560
X+052705Y+035560
X+050165Y+035560
T04
X+062808Y+014457
X+060268Y+014457
X+057728Y+014457
X+055188Y+014457
X+052648Y+014457
X+050108Y+014457
X+047568Y+014457
X+045028Y+014457
X+042488Y+014457
X+039948Y+014457
X+037408Y+014457
X+034868Y+014457
X+032328Y+014457
X+029788Y+014457
X+027248Y+014457
X+024708Y+014457
X+022168Y+014457
X+019628Y+014457
X+017088Y+014457
X+065348Y+029697
X+062808Y+029697
X+060268Y+029697
X+057728Y+029697
X+055188Y+029697
X+052648Y+029697
X+050108Y+029697
X+047568Y+029697
X+045028Y+029697
X+042488Y+029697
X+039948Y+029697
X+037408Y+029697
X+034868Y+029697
X+032328Y+029697
X+029788Y+029697
X+027248Y+029697
X+024708Y+029697
X+022168Y+029697
X+019628Y+029697
X+017088Y+029697
X+065348Y+014456
X+043942Y+035560
X+041402Y+035560
X+038862Y+035560
X+036322Y+035560
X+029845Y+035560
X+027305Y+035560
X+024765Y+035560
X+022225Y+035560
X+019685Y+035560
T05
X+012292Y+007870G85X+012292Y+007875
X+012292Y+005370G85X+012292Y+005375
X+012165Y+030095G85X+012165Y+030100
X+012165Y+027595G85X+012165Y+027600
T06
X+008030Y+002774G85X+008025Y+002774
X+008030Y+012973G85X+008025Y+012973
X+007903Y+024999G85X+007898Y+024999
X+007903Y+035198G85X+007898Y+035198
M30
