G04 Layer: BottomSilkLayer*
G04 EasyEDA v6.4.7, 2020-11-20T18:15:40+05:30*
G04 2bd19a94ae5149c988909f382a05baad,5a8210e43a1b4091af5044d7901ac753,10*
G04 Gerber Generator version 0.2*
G04 Scale: 100 percent, Rotated: No, Reflected: No *
G04 Dimensions in millimeters *
G04 leading zeros omitted , absolute positions ,3 integer and 3 decimal *
%FSLAX33Y33*%
%MOMM*%
G90*
D02*

%ADD10C,0.254000*%
%ADD32C,0.203200*%
%ADD34C,0.200660*%
%ADD36C,0.152400*%
%ADD37C,0.228600*%
%ADD38C,0.249936*%

%LPD*%
G54D10*
G01X56515Y34290D02*
G01X61595Y34290D01*
G01X48895Y34290D02*
G01X53975Y34290D01*
G01X40259Y34290D02*
G01X40259Y33401D01*
G01X28702Y34417D02*
G01X29718Y33401D01*
G01X29718Y33401D02*
G01X29718Y31242D01*
G01X28702Y36830D02*
G01X28702Y34417D01*
G54D34*
G01X2943Y33327D02*
G01X2943Y26626D01*
G01X6192Y26626D01*
G01X6192Y33327D01*
G01X2943Y33327D01*
G54D10*
G01X31904Y12611D02*
G01X31904Y11011D01*
G01X35405Y12611D02*
G01X35405Y11010D01*
G01X33155Y10770D02*
G01X32105Y10770D01*
G01X33155Y12851D02*
G01X32105Y12851D01*
G01X34154Y10770D02*
G01X35204Y10770D01*
G01X34154Y12851D02*
G01X35204Y12851D01*
G01X35405Y12630D02*
G01X35405Y12611D01*
G01X35405Y12650D02*
G01X35405Y12611D01*
G01X35405Y10971D02*
G01X35405Y11010D01*
G01X31904Y12650D02*
G01X31904Y12611D01*
G01X31904Y10971D02*
G01X31904Y11011D01*
G54D37*
G01X27853Y20798D02*
G01X32853Y20798D01*
G01X32853Y23397D01*
G01X27853Y23397D01*
G01X27853Y20798D01*
G01X28234Y4161D02*
G01X33234Y4161D01*
G01X33234Y6760D01*
G01X28234Y6760D01*
G01X28234Y4161D01*
G54D10*
G01X41249Y22072D02*
G01X40640Y22072D01*
G01X40640Y22072D02*
G01X40640Y22885D01*
G01X42824Y22072D02*
G01X43434Y22072D01*
G01X43434Y22072D02*
G01X43434Y22885D01*
G01X32357Y18122D02*
G01X32357Y19722D01*
G01X28856Y18122D02*
G01X28856Y19723D01*
G01X31106Y19963D02*
G01X32156Y19963D01*
G01X31106Y17882D02*
G01X32156Y17882D01*
G01X30107Y19963D02*
G01X29057Y19963D01*
G01X30107Y17882D02*
G01X29057Y17882D01*
G01X28856Y18103D02*
G01X28856Y18122D01*
G01X28856Y18083D02*
G01X28856Y18122D01*
G01X28856Y19762D02*
G01X28856Y19723D01*
G01X32357Y18083D02*
G01X32357Y18122D01*
G01X32357Y19762D02*
G01X32357Y19722D01*
G01X40538Y20675D02*
G01X40538Y18211D01*
G01X43510Y18211D02*
G01X43510Y20675D01*
G01X43256Y17957D02*
G01X40817Y17957D01*
G01X40792Y20904D02*
G01X43256Y20904D01*
G01X36283Y18315D02*
G01X37883Y18315D01*
G01X36283Y21816D02*
G01X37884Y21816D01*
G01X38124Y19566D02*
G01X38124Y18516D01*
G01X36043Y19566D02*
G01X36043Y18516D01*
G01X38124Y20565D02*
G01X38124Y21615D01*
G01X36043Y20565D02*
G01X36043Y21615D01*
G01X36264Y21816D02*
G01X36283Y21816D01*
G01X36244Y21816D02*
G01X36283Y21816D01*
G01X37923Y21816D02*
G01X37884Y21816D01*
G01X36244Y18315D02*
G01X36283Y18315D01*
G01X37923Y18315D02*
G01X37883Y18315D01*
G01X33743Y18315D02*
G01X35343Y18315D01*
G01X33743Y21816D02*
G01X35344Y21816D01*
G01X35584Y19566D02*
G01X35584Y18516D01*
G01X33503Y19566D02*
G01X33503Y18516D01*
G01X35584Y20565D02*
G01X35584Y21615D01*
G01X33503Y20565D02*
G01X33503Y21615D01*
G01X33724Y21816D02*
G01X33743Y21816D01*
G01X33704Y21816D02*
G01X33743Y21816D01*
G01X35383Y21816D02*
G01X35344Y21816D01*
G01X33704Y18315D02*
G01X33743Y18315D01*
G01X35383Y18315D02*
G01X35343Y18315D01*
G01X14886Y25565D02*
G01X14886Y23965D01*
G01X18387Y25565D02*
G01X18387Y23964D01*
G01X16137Y23724D02*
G01X15087Y23724D01*
G01X16137Y25805D02*
G01X15087Y25805D01*
G01X17136Y23724D02*
G01X18186Y23724D01*
G01X17136Y25805D02*
G01X18186Y25805D01*
G01X18387Y25584D02*
G01X18387Y25565D01*
G01X18387Y25604D02*
G01X18387Y25565D01*
G01X18387Y23925D02*
G01X18387Y23964D01*
G01X14886Y25604D02*
G01X14886Y25565D01*
G01X14886Y23925D02*
G01X14886Y23965D01*
G01X21617Y17691D02*
G01X21617Y16091D01*
G01X25118Y17691D02*
G01X25118Y16090D01*
G01X22868Y15850D02*
G01X21818Y15850D01*
G01X22868Y17931D02*
G01X21818Y17931D01*
G01X23867Y15850D02*
G01X24917Y15850D01*
G01X23867Y17931D02*
G01X24917Y17931D01*
G01X25118Y17710D02*
G01X25118Y17691D01*
G01X25118Y17730D02*
G01X25118Y17691D01*
G01X25118Y16051D02*
G01X25118Y16090D01*
G01X21617Y17730D02*
G01X21617Y17691D01*
G01X21617Y16051D02*
G01X21617Y16091D01*
G01X36220Y5486D02*
G01X36830Y5486D01*
G01X36830Y5486D02*
G01X36830Y4673D01*
G01X34645Y5486D02*
G01X34036Y5486D01*
G01X34036Y5486D02*
G01X34036Y4673D01*
G01X32484Y7835D02*
G01X32484Y9435D01*
G01X28983Y7835D02*
G01X28983Y9436D01*
G01X31233Y9676D02*
G01X32283Y9676D01*
G01X31233Y7595D02*
G01X32283Y7595D01*
G01X30234Y9676D02*
G01X29184Y9676D01*
G01X30234Y7595D02*
G01X29184Y7595D01*
G01X28983Y7816D02*
G01X28983Y7835D01*
G01X28983Y7796D02*
G01X28983Y7835D01*
G01X28983Y9475D02*
G01X28983Y9436D01*
G01X32484Y7796D02*
G01X32484Y7835D01*
G01X32484Y9475D02*
G01X32484Y9435D01*
G01X35902Y7139D02*
G01X37502Y7139D01*
G01X35902Y10640D02*
G01X37503Y10640D01*
G01X37743Y8390D02*
G01X37743Y7340D01*
G01X35662Y8390D02*
G01X35662Y7340D01*
G01X37743Y9389D02*
G01X37743Y10439D01*
G01X35662Y9389D02*
G01X35662Y10439D01*
G01X35883Y10640D02*
G01X35902Y10640D01*
G01X35863Y10640D02*
G01X35902Y10640D01*
G01X37542Y10640D02*
G01X37503Y10640D01*
G01X35863Y7139D02*
G01X35902Y7139D01*
G01X37542Y7139D02*
G01X37502Y7139D01*
G01X38696Y7139D02*
G01X40296Y7139D01*
G01X38696Y10640D02*
G01X40297Y10640D01*
G01X40537Y8390D02*
G01X40537Y7340D01*
G01X38456Y8390D02*
G01X38456Y7340D01*
G01X40537Y9389D02*
G01X40537Y10439D01*
G01X38456Y9389D02*
G01X38456Y10439D01*
G01X38677Y10640D02*
G01X38696Y10640D01*
G01X38657Y10640D02*
G01X38696Y10640D01*
G01X40336Y10640D02*
G01X40297Y10640D01*
G01X38657Y7139D02*
G01X38696Y7139D01*
G01X40336Y7139D02*
G01X40296Y7139D01*
G01X13931Y5996D02*
G01X15531Y5996D01*
G01X13931Y9497D02*
G01X15532Y9497D01*
G01X15772Y7247D02*
G01X15772Y6197D01*
G01X13691Y7247D02*
G01X13691Y6197D01*
G01X15772Y8246D02*
G01X15772Y9296D01*
G01X13691Y8246D02*
G01X13691Y9296D01*
G01X13912Y9497D02*
G01X13931Y9497D01*
G01X13892Y9497D02*
G01X13931Y9497D01*
G01X15571Y9497D02*
G01X15532Y9497D01*
G01X13892Y5996D02*
G01X13931Y5996D01*
G01X15571Y5996D02*
G01X15531Y5996D01*
G01X25245Y11010D02*
G01X25245Y12610D01*
G01X21744Y11010D02*
G01X21744Y12611D01*
G01X23994Y12851D02*
G01X25044Y12851D01*
G01X23994Y10770D02*
G01X25044Y10770D01*
G01X22995Y12851D02*
G01X21945Y12851D01*
G01X22995Y10770D02*
G01X21945Y10770D01*
G01X21744Y10991D02*
G01X21744Y11010D01*
G01X21744Y10971D02*
G01X21744Y11010D01*
G01X21744Y12650D02*
G01X21744Y12611D01*
G01X25245Y10971D02*
G01X25245Y11010D01*
G01X25245Y12650D02*
G01X25245Y12610D01*
G01X38811Y3378D02*
G01X38811Y3276D01*
G01X40436Y3276D01*
G01X40436Y3378D01*
G01X40436Y6019D02*
G01X40436Y6121D01*
G01X38811Y6121D01*
G01X38811Y6019D01*
G01X38811Y5232D02*
G01X38811Y4165D01*
G01X40436Y5130D02*
G01X40436Y5232D01*
G01X40436Y4165D02*
G01X40436Y4267D01*
G01X11021Y20535D02*
G01X11021Y22135D01*
G01X7520Y20535D02*
G01X7520Y22136D01*
G01X9770Y22376D02*
G01X10820Y22376D01*
G01X9770Y20295D02*
G01X10820Y20295D01*
G01X8771Y22376D02*
G01X7721Y22376D01*
G01X8771Y20295D02*
G01X7721Y20295D01*
G01X7520Y20516D02*
G01X7520Y20535D01*
G01X7520Y20496D02*
G01X7520Y20535D01*
G01X7520Y22175D02*
G01X7520Y22136D01*
G01X11021Y20496D02*
G01X11021Y20535D01*
G01X11021Y22175D02*
G01X11021Y22135D01*
G01X596Y16410D02*
G01X2196Y16410D01*
G01X596Y19911D02*
G01X2197Y19911D01*
G01X2437Y17661D02*
G01X2437Y16611D01*
G01X356Y17661D02*
G01X356Y16611D01*
G01X2437Y18660D02*
G01X2437Y19710D01*
G01X356Y18660D02*
G01X356Y19710D01*
G01X577Y19911D02*
G01X596Y19911D01*
G01X557Y19911D02*
G01X596Y19911D01*
G01X2236Y19911D02*
G01X2197Y19911D01*
G01X557Y16410D02*
G01X596Y16410D01*
G01X2236Y16410D02*
G01X2196Y16410D01*
G01X11021Y15836D02*
G01X11021Y17436D01*
G01X7520Y15836D02*
G01X7520Y17437D01*
G01X9770Y17677D02*
G01X10820Y17677D01*
G01X9770Y15596D02*
G01X10820Y15596D01*
G01X8771Y17677D02*
G01X7721Y17677D01*
G01X8771Y15596D02*
G01X7721Y15596D01*
G01X7520Y15817D02*
G01X7520Y15836D01*
G01X7520Y15797D02*
G01X7520Y15836D01*
G01X7520Y17476D02*
G01X7520Y17437D01*
G01X11021Y15797D02*
G01X11021Y15836D01*
G01X11021Y17476D02*
G01X11021Y17436D01*
G01X42697Y10769D02*
G01X42697Y8305D01*
G01X45669Y8305D02*
G01X45669Y10769D01*
G01X45415Y8051D02*
G01X42976Y8051D01*
G01X42951Y10998D02*
G01X45415Y10998D01*
G54D38*
G01X24384Y22860D02*
G01X24638Y22860D01*
G01X24638Y18274D01*
G01X19143Y18274D01*
G01X19143Y22873D01*
G01X24384Y22860D01*
G01X24384Y9906D02*
G01X24638Y9906D01*
G01X24638Y5320D01*
G01X19143Y5320D01*
G01X19143Y9919D01*
G01X24384Y9906D01*
G54D32*
G01X35987Y32111D02*
G01X35942Y32020D01*
G01X35851Y31929D01*
G01X35760Y31883D01*
G01X35578Y31883D01*
G01X35487Y31929D01*
G01X35396Y32020D01*
G01X35351Y32111D01*
G01X35306Y32247D01*
G01X35306Y32474D01*
G01X35351Y32611D01*
G01X35396Y32702D01*
G01X35487Y32793D01*
G01X35578Y32838D01*
G01X35760Y32838D01*
G01X35851Y32793D01*
G01X35942Y32702D01*
G01X35987Y32611D01*
G01X35987Y32474D01*
G01X35760Y32474D02*
G01X35987Y32474D01*
G01X37533Y31883D02*
G01X37078Y31883D01*
G01X37033Y32293D01*
G01X37078Y32247D01*
G01X37215Y32202D01*
G01X37351Y32202D01*
G01X37487Y32247D01*
G01X37578Y32338D01*
G01X37624Y32474D01*
G01X37624Y32565D01*
G01X37578Y32702D01*
G01X37487Y32793D01*
G01X37351Y32838D01*
G01X37215Y32838D01*
G01X37078Y32793D01*
G01X37033Y32747D01*
G01X36987Y32656D01*
G01X37924Y31883D02*
G01X38287Y32838D01*
G01X38651Y31883D02*
G01X38287Y32838D01*
G01X40287Y32020D02*
G01X40196Y31929D01*
G01X40060Y31883D01*
G01X39878Y31883D01*
G01X39742Y31929D01*
G01X39651Y32020D01*
G01X39651Y32111D01*
G01X39696Y32202D01*
G01X39742Y32247D01*
G01X39833Y32293D01*
G01X40105Y32383D01*
G01X40196Y32429D01*
G01X40242Y32474D01*
G01X40287Y32565D01*
G01X40287Y32702D01*
G01X40196Y32793D01*
G01X40060Y32838D01*
G01X39878Y32838D01*
G01X39742Y32793D01*
G01X39651Y32702D01*
G01X40587Y31883D02*
G01X40587Y32838D01*
G01X40587Y31883D02*
G01X40905Y31883D01*
G01X41042Y31929D01*
G01X41133Y32020D01*
G01X41178Y32111D01*
G01X41224Y32247D01*
G01X41224Y32474D01*
G01X41178Y32611D01*
G01X41133Y32702D01*
G01X41042Y32793D01*
G01X40905Y32838D01*
G01X40587Y32838D01*
G01X41887Y31883D02*
G01X41524Y32838D01*
G01X41887Y31883D02*
G01X42251Y32838D01*
G01X41660Y32520D02*
G01X42115Y32520D01*
G01X43887Y32020D02*
G01X43796Y31929D01*
G01X43660Y31883D01*
G01X43478Y31883D01*
G01X43342Y31929D01*
G01X43251Y32020D01*
G01X43251Y32111D01*
G01X43296Y32202D01*
G01X43342Y32247D01*
G01X43433Y32293D01*
G01X43705Y32383D01*
G01X43796Y32429D01*
G01X43842Y32474D01*
G01X43887Y32565D01*
G01X43887Y32702D01*
G01X43796Y32793D01*
G01X43660Y32838D01*
G01X43478Y32838D01*
G01X43342Y32793D01*
G01X43251Y32702D01*
G01X44187Y31883D02*
G01X44187Y32838D01*
G01X44187Y31883D02*
G01X44505Y31883D01*
G01X44642Y31929D01*
G01X44733Y32020D01*
G01X44778Y32111D01*
G01X44824Y32247D01*
G01X44824Y32474D01*
G01X44778Y32611D01*
G01X44733Y32702D01*
G01X44642Y32793D01*
G01X44505Y32838D01*
G01X44187Y32838D01*
G01X45124Y31883D02*
G01X45124Y32838D01*
G01X45124Y32838D02*
G01X45669Y32838D01*
G01X19350Y32111D02*
G01X19305Y32020D01*
G01X19214Y31929D01*
G01X19123Y31883D01*
G01X18941Y31883D01*
G01X18850Y31929D01*
G01X18759Y32020D01*
G01X18714Y32111D01*
G01X18669Y32247D01*
G01X18669Y32474D01*
G01X18714Y32611D01*
G01X18759Y32702D01*
G01X18850Y32793D01*
G01X18941Y32838D01*
G01X19123Y32838D01*
G01X19214Y32793D01*
G01X19305Y32702D01*
G01X19350Y32611D01*
G01X19350Y32474D01*
G01X19123Y32474D02*
G01X19350Y32474D01*
G01X20896Y31883D02*
G01X20441Y31883D01*
G01X20396Y32293D01*
G01X20441Y32247D01*
G01X20578Y32202D01*
G01X20714Y32202D01*
G01X20850Y32247D01*
G01X20941Y32338D01*
G01X20987Y32474D01*
G01X20987Y32565D01*
G01X20941Y32702D01*
G01X20850Y32793D01*
G01X20714Y32838D01*
G01X20578Y32838D01*
G01X20441Y32793D01*
G01X20396Y32747D01*
G01X20350Y32656D01*
G01X21287Y31883D02*
G01X21650Y32838D01*
G01X22014Y31883D02*
G01X21650Y32838D01*
G01X23650Y32020D02*
G01X23559Y31929D01*
G01X23423Y31883D01*
G01X23241Y31883D01*
G01X23105Y31929D01*
G01X23014Y32020D01*
G01X23014Y32111D01*
G01X23059Y32202D01*
G01X23105Y32247D01*
G01X23196Y32293D01*
G01X23468Y32383D01*
G01X23559Y32429D01*
G01X23605Y32474D01*
G01X23650Y32565D01*
G01X23650Y32702D01*
G01X23559Y32793D01*
G01X23423Y32838D01*
G01X23241Y32838D01*
G01X23105Y32793D01*
G01X23014Y32702D01*
G01X23950Y31883D02*
G01X23950Y32838D01*
G01X23950Y31883D02*
G01X24268Y31883D01*
G01X24405Y31929D01*
G01X24496Y32020D01*
G01X24541Y32111D01*
G01X24587Y32247D01*
G01X24587Y32474D01*
G01X24541Y32611D01*
G01X24496Y32702D01*
G01X24405Y32793D01*
G01X24268Y32838D01*
G01X23950Y32838D01*
G01X25250Y31883D02*
G01X24887Y32838D01*
G01X25250Y31883D02*
G01X25614Y32838D01*
G01X25023Y32520D02*
G01X25478Y32520D01*
G01X27250Y32020D02*
G01X27159Y31929D01*
G01X27023Y31883D01*
G01X26841Y31883D01*
G01X26705Y31929D01*
G01X26614Y32020D01*
G01X26614Y32111D01*
G01X26659Y32202D01*
G01X26705Y32247D01*
G01X26796Y32293D01*
G01X27069Y32383D01*
G01X27159Y32429D01*
G01X27205Y32474D01*
G01X27250Y32565D01*
G01X27250Y32702D01*
G01X27159Y32793D01*
G01X27023Y32838D01*
G01X26841Y32838D01*
G01X26705Y32793D01*
G01X26614Y32702D01*
G01X27550Y31883D02*
G01X27550Y32838D01*
G01X27550Y31883D02*
G01X27869Y31883D01*
G01X28005Y31929D01*
G01X28096Y32020D01*
G01X28141Y32111D01*
G01X28187Y32247D01*
G01X28187Y32474D01*
G01X28141Y32611D01*
G01X28096Y32702D01*
G01X28005Y32793D01*
G01X27869Y32838D01*
G01X27550Y32838D01*
G01X28487Y31883D02*
G01X28487Y32838D01*
G01X28487Y32838D02*
G01X29032Y32838D01*
G01X30732Y31883D02*
G01X30732Y32838D01*
G01X31032Y31883D02*
G01X31032Y32838D01*
G01X31032Y31883D02*
G01X31668Y32838D01*
G01X31668Y31883D02*
G01X31668Y32838D01*
G01X32287Y31883D02*
G01X32287Y32838D01*
G01X31968Y31883D02*
G01X32605Y31883D01*
G01X49721Y32772D02*
G01X49721Y33727D01*
G01X49403Y32772D02*
G01X50039Y32772D01*
G01X50339Y32772D02*
G01X50975Y33727D01*
G01X50975Y32772D02*
G01X50339Y33727D01*
G01X51975Y32772D02*
G01X51975Y33727D01*
G01X51975Y32772D02*
G01X52384Y32772D01*
G01X52521Y32818D01*
G01X52566Y32863D01*
G01X52612Y32954D01*
G01X52612Y33045D01*
G01X52566Y33136D01*
G01X52521Y33182D01*
G01X52384Y33227D01*
G01X51975Y33227D01*
G01X52293Y33227D02*
G01X52612Y33727D01*
G01X52912Y32772D02*
G01X53548Y33727D01*
G01X53548Y32772D02*
G01X52912Y33727D01*
G01X57813Y32909D02*
G01X57813Y33727D01*
G01X57404Y33318D02*
G01X58222Y33318D01*
G01X59922Y33318D02*
G01X60740Y33318D01*
G54D36*
G01X5334Y30600D02*
G01X5334Y29918D01*
G01X5288Y29781D01*
G01X5197Y29690D01*
G01X5061Y29645D01*
G01X4970Y29645D01*
G01X4834Y29690D01*
G01X4743Y29781D01*
G01X4697Y29918D01*
G01X4697Y30600D01*
G01X4352Y30372D02*
G01X4352Y30418D01*
G01X4306Y30509D01*
G01X4261Y30554D01*
G01X4170Y30600D01*
G01X3988Y30600D01*
G01X3897Y30554D01*
G01X3852Y30509D01*
G01X3806Y30418D01*
G01X3806Y30327D01*
G01X3852Y30236D01*
G01X3943Y30100D01*
G01X4397Y29645D01*
G01X3761Y29645D01*
G01X30814Y12211D02*
G01X30859Y12302D01*
G01X30950Y12393D01*
G01X31041Y12439D01*
G01X31223Y12439D01*
G01X31314Y12393D01*
G01X31405Y12302D01*
G01X31450Y12211D01*
G01X31496Y12075D01*
G01X31496Y11848D01*
G01X31450Y11711D01*
G01X31405Y11620D01*
G01X31314Y11529D01*
G01X31223Y11484D01*
G01X31041Y11484D01*
G01X30950Y11529D01*
G01X30859Y11620D01*
G01X30814Y11711D01*
G01X30059Y12439D02*
G01X30514Y11802D01*
G01X29832Y11802D01*
G01X30059Y12439D02*
G01X30059Y11484D01*
G01X30433Y24657D02*
G01X30478Y24748D01*
G01X30569Y24839D01*
G01X30660Y24885D01*
G01X30842Y24885D01*
G01X30933Y24839D01*
G01X31024Y24748D01*
G01X31069Y24657D01*
G01X31115Y24521D01*
G01X31115Y24294D01*
G01X31069Y24157D01*
G01X31024Y24066D01*
G01X30933Y23975D01*
G01X30842Y23930D01*
G01X30660Y23930D01*
G01X30569Y23975D01*
G01X30478Y24066D01*
G01X30433Y24157D01*
G01X30133Y24703D02*
G01X30042Y24748D01*
G01X29905Y24885D01*
G01X29905Y23930D01*
G01X27004Y4845D02*
G01X27049Y4936D01*
G01X27140Y5027D01*
G01X27231Y5073D01*
G01X27413Y5073D01*
G01X27504Y5027D01*
G01X27595Y4936D01*
G01X27640Y4845D01*
G01X27686Y4709D01*
G01X27686Y4482D01*
G01X27640Y4345D01*
G01X27595Y4254D01*
G01X27504Y4163D01*
G01X27413Y4118D01*
G01X27231Y4118D01*
G01X27140Y4163D01*
G01X27049Y4254D01*
G01X27004Y4345D01*
G01X26158Y5073D02*
G01X26613Y5073D01*
G01X26658Y4663D01*
G01X26613Y4709D01*
G01X26476Y4754D01*
G01X26340Y4754D01*
G01X26204Y4709D01*
G01X26113Y4618D01*
G01X26067Y4482D01*
G01X26067Y4391D01*
G01X26113Y4254D01*
G01X26204Y4163D01*
G01X26340Y4118D01*
G01X26476Y4118D01*
G01X26613Y4163D01*
G01X26658Y4209D01*
G01X26704Y4300D01*
G01X40132Y23234D02*
G01X40132Y22279D01*
G01X40132Y23234D02*
G01X39813Y23234D01*
G01X39677Y23188D01*
G01X39586Y23097D01*
G01X39541Y23006D01*
G01X39495Y22870D01*
G01X39495Y22643D01*
G01X39541Y22506D01*
G01X39586Y22415D01*
G01X39677Y22324D01*
G01X39813Y22279D01*
G01X40132Y22279D01*
G01X39195Y23052D02*
G01X39104Y23097D01*
G01X38968Y23234D01*
G01X38968Y22279D01*
G01X31369Y17392D02*
G01X31369Y16437D01*
G01X31369Y17392D02*
G01X30959Y17392D01*
G01X30823Y17346D01*
G01X30778Y17301D01*
G01X30732Y17210D01*
G01X30732Y17119D01*
G01X30778Y17028D01*
G01X30823Y16982D01*
G01X30959Y16937D01*
G01X31369Y16937D01*
G01X31050Y16937D02*
G01X30732Y16437D01*
G01X30387Y17164D02*
G01X30387Y17210D01*
G01X30341Y17301D01*
G01X30296Y17346D01*
G01X30205Y17392D01*
G01X30023Y17392D01*
G01X29932Y17346D01*
G01X29887Y17301D01*
G01X29841Y17210D01*
G01X29841Y17119D01*
G01X29887Y17028D01*
G01X29978Y16892D01*
G01X30432Y16437D01*
G01X29796Y16437D01*
G01X42799Y20313D02*
G01X42799Y19631D01*
G01X42753Y19494D01*
G01X42662Y19403D01*
G01X42526Y19358D01*
G01X42435Y19358D01*
G01X42299Y19403D01*
G01X42208Y19494D01*
G01X42162Y19631D01*
G01X42162Y20313D01*
G01X41862Y20131D02*
G01X41771Y20176D01*
G01X41635Y20313D01*
G01X41635Y19358D01*
G01X37973Y17519D02*
G01X37973Y16564D01*
G01X37973Y17519D02*
G01X37563Y17519D01*
G01X37427Y17473D01*
G01X37382Y17428D01*
G01X37336Y17337D01*
G01X37336Y17246D01*
G01X37382Y17155D01*
G01X37427Y17109D01*
G01X37563Y17064D01*
G01X37973Y17064D01*
G01X37654Y17064D02*
G01X37336Y16564D01*
G01X36945Y17519D02*
G01X36445Y17519D01*
G01X36718Y17155D01*
G01X36582Y17155D01*
G01X36491Y17109D01*
G01X36445Y17064D01*
G01X36400Y16928D01*
G01X36400Y16837D01*
G01X36445Y16700D01*
G01X36536Y16609D01*
G01X36673Y16564D01*
G01X36809Y16564D01*
G01X36945Y16609D01*
G01X36991Y16655D01*
G01X37036Y16746D01*
G01X34751Y17291D02*
G01X34796Y17382D01*
G01X34887Y17473D01*
G01X34978Y17519D01*
G01X35160Y17519D01*
G01X35251Y17473D01*
G01X35342Y17382D01*
G01X35387Y17291D01*
G01X35433Y17155D01*
G01X35433Y16928D01*
G01X35387Y16791D01*
G01X35342Y16700D01*
G01X35251Y16609D01*
G01X35160Y16564D01*
G01X34978Y16564D01*
G01X34887Y16609D01*
G01X34796Y16700D01*
G01X34751Y16791D01*
G01X34360Y17519D02*
G01X33860Y17519D01*
G01X34133Y17155D01*
G01X33996Y17155D01*
G01X33905Y17109D01*
G01X33860Y17064D01*
G01X33814Y16928D01*
G01X33814Y16837D01*
G01X33860Y16700D01*
G01X33951Y16609D01*
G01X34087Y16564D01*
G01X34223Y16564D01*
G01X34360Y16609D01*
G01X34405Y16655D01*
G01X34451Y16746D01*
G01X19892Y25038D02*
G01X19937Y25129D01*
G01X20028Y25220D01*
G01X20119Y25266D01*
G01X20301Y25266D01*
G01X20392Y25220D01*
G01X20483Y25129D01*
G01X20528Y25038D01*
G01X20574Y24902D01*
G01X20574Y24675D01*
G01X20528Y24538D01*
G01X20483Y24447D01*
G01X20392Y24356D01*
G01X20301Y24311D01*
G01X20119Y24311D01*
G01X20028Y24356D01*
G01X19937Y24447D01*
G01X19892Y24538D01*
G01X19546Y25038D02*
G01X19546Y25084D01*
G01X19501Y25175D01*
G01X19455Y25220D01*
G01X19364Y25266D01*
G01X19183Y25266D01*
G01X19092Y25220D01*
G01X19046Y25175D01*
G01X19001Y25084D01*
G01X19001Y24993D01*
G01X19046Y24902D01*
G01X19137Y24766D01*
G01X19592Y24311D01*
G01X18955Y24311D01*
G01X27051Y17392D02*
G01X27051Y16437D01*
G01X27051Y17392D02*
G01X26641Y17392D01*
G01X26505Y17346D01*
G01X26460Y17301D01*
G01X26414Y17210D01*
G01X26414Y17119D01*
G01X26460Y17028D01*
G01X26505Y16982D01*
G01X26641Y16937D01*
G01X27051Y16937D01*
G01X26732Y16937D02*
G01X26414Y16437D01*
G01X26114Y17210D02*
G01X26023Y17255D01*
G01X25887Y17392D01*
G01X25887Y16437D01*
G01X36068Y2914D02*
G01X36068Y1959D01*
G01X36068Y2914D02*
G01X35749Y2914D01*
G01X35613Y2868D01*
G01X35522Y2777D01*
G01X35477Y2686D01*
G01X35431Y2550D01*
G01X35431Y2323D01*
G01X35477Y2186D01*
G01X35522Y2095D01*
G01X35613Y2004D01*
G01X35749Y1959D01*
G01X36068Y1959D01*
G01X35086Y2686D02*
G01X35086Y2732D01*
G01X35040Y2823D01*
G01X34995Y2868D01*
G01X34904Y2914D01*
G01X34722Y2914D01*
G01X34631Y2868D01*
G01X34586Y2823D01*
G01X34540Y2732D01*
G01X34540Y2641D01*
G01X34586Y2550D01*
G01X34677Y2414D01*
G01X35131Y1959D01*
G01X34495Y1959D01*
G01X34417Y9137D02*
G01X34417Y8182D01*
G01X34417Y9137D02*
G01X34007Y9137D01*
G01X33871Y9091D01*
G01X33826Y9046D01*
G01X33780Y8955D01*
G01X33780Y8864D01*
G01X33826Y8773D01*
G01X33871Y8727D01*
G01X34007Y8682D01*
G01X34417Y8682D01*
G01X34098Y8682D02*
G01X33780Y8182D01*
G01X32935Y9000D02*
G01X32980Y9091D01*
G01X33117Y9137D01*
G01X33207Y9137D01*
G01X33344Y9091D01*
G01X33435Y8955D01*
G01X33480Y8727D01*
G01X33480Y8500D01*
G01X33435Y8318D01*
G01X33344Y8227D01*
G01X33207Y8182D01*
G01X33162Y8182D01*
G01X33026Y8227D01*
G01X32935Y8318D01*
G01X32889Y8455D01*
G01X32889Y8500D01*
G01X32935Y8637D01*
G01X33026Y8727D01*
G01X33162Y8773D01*
G01X33207Y8773D01*
G01X33344Y8727D01*
G01X33435Y8637D01*
G01X33480Y8500D01*
G01X37338Y12185D02*
G01X37338Y11230D01*
G01X37338Y12185D02*
G01X36928Y12185D01*
G01X36792Y12139D01*
G01X36747Y12094D01*
G01X36701Y12003D01*
G01X36701Y11912D01*
G01X36747Y11821D01*
G01X36792Y11775D01*
G01X36928Y11730D01*
G01X37338Y11730D01*
G01X37019Y11730D02*
G01X36701Y11230D01*
G01X35765Y12185D02*
G01X36219Y11230D01*
G01X36401Y12185D02*
G01X35765Y12185D01*
G01X39450Y11957D02*
G01X39495Y12048D01*
G01X39586Y12139D01*
G01X39677Y12185D01*
G01X39859Y12185D01*
G01X39950Y12139D01*
G01X40041Y12048D01*
G01X40086Y11957D01*
G01X40132Y11821D01*
G01X40132Y11594D01*
G01X40086Y11457D01*
G01X40041Y11366D01*
G01X39950Y11275D01*
G01X39859Y11230D01*
G01X39677Y11230D01*
G01X39586Y11275D01*
G01X39495Y11366D01*
G01X39450Y11457D01*
G01X38513Y12185D02*
G01X38968Y11230D01*
G01X39150Y12185D02*
G01X38513Y12185D01*
G01X14812Y10687D02*
G01X14857Y10778D01*
G01X14948Y10869D01*
G01X15039Y10915D01*
G01X15221Y10915D01*
G01X15312Y10869D01*
G01X15403Y10778D01*
G01X15448Y10687D01*
G01X15494Y10551D01*
G01X15494Y10324D01*
G01X15448Y10187D01*
G01X15403Y10096D01*
G01X15312Y10005D01*
G01X15221Y9960D01*
G01X15039Y9960D01*
G01X14948Y10005D01*
G01X14857Y10096D01*
G01X14812Y10187D01*
G01X13966Y10778D02*
G01X14012Y10869D01*
G01X14148Y10915D01*
G01X14239Y10915D01*
G01X14375Y10869D01*
G01X14466Y10733D01*
G01X14512Y10505D01*
G01X14512Y10278D01*
G01X14466Y10096D01*
G01X14375Y10005D01*
G01X14239Y9960D01*
G01X14194Y9960D01*
G01X14057Y10005D01*
G01X13966Y10096D01*
G01X13921Y10233D01*
G01X13921Y10278D01*
G01X13966Y10415D01*
G01X14057Y10505D01*
G01X14194Y10551D01*
G01X14239Y10551D01*
G01X14375Y10505D01*
G01X14466Y10415D01*
G01X14512Y10278D01*
G01X27305Y12439D02*
G01X27305Y11484D01*
G01X27305Y12439D02*
G01X26895Y12439D01*
G01X26759Y12393D01*
G01X26714Y12348D01*
G01X26668Y12257D01*
G01X26668Y12166D01*
G01X26714Y12075D01*
G01X26759Y12029D01*
G01X26895Y11984D01*
G01X27305Y11984D01*
G01X26986Y11984D02*
G01X26668Y11484D01*
G01X25823Y12439D02*
G01X26277Y12439D01*
G01X26323Y12029D01*
G01X26277Y12075D01*
G01X26141Y12120D01*
G01X26005Y12120D01*
G01X25868Y12075D01*
G01X25777Y11984D01*
G01X25732Y11848D01*
G01X25732Y11757D01*
G01X25777Y11620D01*
G01X25868Y11529D01*
G01X26005Y11484D01*
G01X26141Y11484D01*
G01X26277Y11529D01*
G01X26323Y11575D01*
G01X26368Y11666D01*
G01X39122Y5207D02*
G01X39804Y5207D01*
G01X39941Y5161D01*
G01X40032Y5070D01*
G01X40077Y4934D01*
G01X40077Y4843D01*
G01X40032Y4707D01*
G01X39941Y4616D01*
G01X39804Y4570D01*
G01X39122Y4570D01*
G01X39122Y3816D02*
G01X39759Y4270D01*
G01X39759Y3588D01*
G01X39122Y3816D02*
G01X40077Y3816D01*
G01X6430Y21609D02*
G01X6475Y21700D01*
G01X6566Y21791D01*
G01X6657Y21837D01*
G01X6839Y21837D01*
G01X6930Y21791D01*
G01X7021Y21700D01*
G01X7066Y21609D01*
G01X7112Y21473D01*
G01X7112Y21246D01*
G01X7066Y21109D01*
G01X7021Y21018D01*
G01X6930Y20927D01*
G01X6839Y20882D01*
G01X6657Y20882D01*
G01X6566Y20927D01*
G01X6475Y21018D01*
G01X6430Y21109D01*
G01X5902Y21837D02*
G01X6039Y21791D01*
G01X6084Y21700D01*
G01X6084Y21609D01*
G01X6039Y21518D01*
G01X5948Y21473D01*
G01X5766Y21427D01*
G01X5630Y21382D01*
G01X5539Y21291D01*
G01X5493Y21200D01*
G01X5493Y21064D01*
G01X5539Y20973D01*
G01X5584Y20927D01*
G01X5721Y20882D01*
G01X5902Y20882D01*
G01X6039Y20927D01*
G01X6084Y20973D01*
G01X6130Y21064D01*
G01X6130Y21200D01*
G01X6084Y21291D01*
G01X5993Y21382D01*
G01X5857Y21427D01*
G01X5675Y21473D01*
G01X5584Y21518D01*
G01X5539Y21609D01*
G01X5539Y21700D01*
G01X5584Y21791D01*
G01X5721Y21837D01*
G01X5902Y21837D01*
G01X2159Y21329D02*
G01X2159Y20374D01*
G01X2159Y21329D02*
G01X1749Y21329D01*
G01X1613Y21283D01*
G01X1568Y21238D01*
G01X1522Y21147D01*
G01X1522Y21056D01*
G01X1568Y20965D01*
G01X1613Y20919D01*
G01X1749Y20874D01*
G01X2159Y20874D01*
G01X1840Y20874D02*
G01X1522Y20374D01*
G01X995Y21329D02*
G01X1131Y21283D01*
G01X1177Y21192D01*
G01X1177Y21101D01*
G01X1131Y21010D01*
G01X1040Y20965D01*
G01X859Y20919D01*
G01X722Y20874D01*
G01X631Y20783D01*
G01X586Y20692D01*
G01X586Y20556D01*
G01X631Y20465D01*
G01X677Y20419D01*
G01X813Y20374D01*
G01X995Y20374D01*
G01X1131Y20419D01*
G01X1177Y20465D01*
G01X1222Y20556D01*
G01X1222Y20692D01*
G01X1177Y20783D01*
G01X1086Y20874D01*
G01X949Y20919D01*
G01X768Y20965D01*
G01X677Y21010D01*
G01X631Y21101D01*
G01X631Y21192D01*
G01X677Y21283D01*
G01X813Y21329D01*
G01X995Y21329D01*
G01X6430Y16910D02*
G01X6475Y17001D01*
G01X6566Y17092D01*
G01X6657Y17138D01*
G01X6839Y17138D01*
G01X6930Y17092D01*
G01X7021Y17001D01*
G01X7066Y16910D01*
G01X7112Y16774D01*
G01X7112Y16547D01*
G01X7066Y16410D01*
G01X7021Y16319D01*
G01X6930Y16228D01*
G01X6839Y16183D01*
G01X6657Y16183D01*
G01X6566Y16228D01*
G01X6475Y16319D01*
G01X6430Y16410D01*
G01X5539Y16819D02*
G01X5584Y16683D01*
G01X5675Y16592D01*
G01X5812Y16547D01*
G01X5857Y16547D01*
G01X5993Y16592D01*
G01X6084Y16683D01*
G01X6130Y16819D01*
G01X6130Y16865D01*
G01X6084Y17001D01*
G01X5993Y17092D01*
G01X5857Y17138D01*
G01X5812Y17138D01*
G01X5675Y17092D01*
G01X5584Y17001D01*
G01X5539Y16819D01*
G01X5539Y16592D01*
G01X5584Y16365D01*
G01X5675Y16228D01*
G01X5812Y16183D01*
G01X5902Y16183D01*
G01X6039Y16228D01*
G01X6084Y16319D01*
G01X45085Y10407D02*
G01X45085Y9725D01*
G01X45039Y9588D01*
G01X44948Y9497D01*
G01X44812Y9452D01*
G01X44721Y9452D01*
G01X44585Y9497D01*
G01X44494Y9588D01*
G01X44448Y9725D01*
G01X44448Y10407D01*
G01X44057Y10407D02*
G01X43557Y10407D01*
G01X43830Y10043D01*
G01X43694Y10043D01*
G01X43603Y9997D01*
G01X43557Y9952D01*
G01X43512Y9816D01*
G01X43512Y9725D01*
G01X43557Y9588D01*
G01X43648Y9497D01*
G01X43785Y9452D01*
G01X43921Y9452D01*
G01X44057Y9497D01*
G01X44103Y9543D01*
G01X44148Y9634D01*
G01X22606Y21075D02*
G01X22606Y20120D01*
G01X21969Y21075D02*
G01X22606Y20438D01*
G01X22378Y20665D02*
G01X21969Y20120D01*
G01X21669Y20893D02*
G01X21578Y20938D01*
G01X21442Y21075D01*
G01X21442Y20120D01*
G01X22606Y8121D02*
G01X22606Y7166D01*
G01X21969Y8121D02*
G01X22606Y7484D01*
G01X22378Y7711D02*
G01X21969Y7166D01*
G01X21624Y7893D02*
G01X21624Y7939D01*
G01X21578Y8030D01*
G01X21533Y8075D01*
G01X21442Y8121D01*
G01X21260Y8121D01*
G01X21169Y8075D01*
G01X21124Y8030D01*
G01X21078Y7939D01*
G01X21078Y7848D01*
G01X21124Y7757D01*
G01X21215Y7621D01*
G01X21669Y7166D01*
G01X21033Y7166D01*
G54D10*
G75*
G01X35205Y12851D02*
G02X35405Y12651I0J-200D01*
G01*
G75*
G01X35205Y10771D02*
G03X35405Y10971I0J200D01*
G01*
G75*
G01X32105Y12851D02*
G03X31905Y12651I0J-200D01*
G01*
G75*
G01X32105Y10771D02*
G02X31905Y10971I0J200D01*
G01*
G75*
G01X29057Y17883D02*
G02X28857Y18083I0J200D01*
G01*
G75*
G01X29057Y19963D02*
G03X28857Y19763I0J-200D01*
G01*
G75*
G01X32157Y17883D02*
G03X32357Y18083I0J200D01*
G01*
G75*
G01X32157Y19963D02*
G02X32357Y19763I0J-200D01*
G01*
G75*
G01X43267Y17951D02*
G03X43517Y18201I0J250D01*
G01*
G75*
G01X43517Y20661D02*
G03X43267Y20911I-250J0D01*
G01*
G75*
G01X40547Y20661D02*
G02X40797Y20911I250J0D01*
G01*
G75*
G01X40797Y17951D02*
G02X40547Y18201I0J250D01*
G01*
G75*
G01X36044Y21616D02*
G02X36244Y21816I200J0D01*
G01*
G75*
G01X38124Y21616D02*
G03X37924Y21816I-200J0D01*
G01*
G75*
G01X36044Y18516D02*
G03X36244Y18316I200J0D01*
G01*
G75*
G01X38124Y18516D02*
G02X37924Y18316I-200J0D01*
G01*
G75*
G01X33504Y21616D02*
G02X33704Y21816I200J0D01*
G01*
G75*
G01X35584Y21616D02*
G03X35384Y21816I-200J0D01*
G01*
G75*
G01X33504Y18516D02*
G03X33704Y18316I200J0D01*
G01*
G75*
G01X35584Y18516D02*
G02X35384Y18316I-200J0D01*
G01*
G75*
G01X18187Y25805D02*
G02X18387Y25605I0J-200D01*
G01*
G75*
G01X18187Y23725D02*
G03X18387Y23925I0J200D01*
G01*
G75*
G01X15087Y25805D02*
G03X14887Y25605I0J-200D01*
G01*
G75*
G01X15087Y23725D02*
G02X14887Y23925I0J200D01*
G01*
G75*
G01X24918Y17931D02*
G02X25118Y17731I0J-200D01*
G01*
G75*
G01X24918Y15851D02*
G03X25118Y16051I0J200D01*
G01*
G75*
G01X21818Y17931D02*
G03X21618Y17731I0J-200D01*
G01*
G75*
G01X21818Y15851D02*
G02X21618Y16051I0J200D01*
G01*
G75*
G01X29184Y7596D02*
G02X28984Y7796I0J200D01*
G01*
G75*
G01X29184Y9676D02*
G03X28984Y9476I0J-200D01*
G01*
G75*
G01X32284Y7596D02*
G03X32484Y7796I0J200D01*
G01*
G75*
G01X32284Y9676D02*
G02X32484Y9476I0J-200D01*
G01*
G75*
G01X35663Y10440D02*
G02X35863Y10640I200J0D01*
G01*
G75*
G01X37743Y10440D02*
G03X37543Y10640I-200J0D01*
G01*
G75*
G01X35663Y7340D02*
G03X35863Y7140I200J0D01*
G01*
G75*
G01X37743Y7340D02*
G02X37543Y7140I-200J0D01*
G01*
G75*
G01X38457Y10440D02*
G02X38657Y10640I200J0D01*
G01*
G75*
G01X40537Y10440D02*
G03X40337Y10640I-200J0D01*
G01*
G75*
G01X38457Y7340D02*
G03X38657Y7140I200J0D01*
G01*
G75*
G01X40537Y7340D02*
G02X40337Y7140I-200J0D01*
G01*
G75*
G01X13692Y9297D02*
G02X13892Y9497I200J0D01*
G01*
G75*
G01X15772Y9297D02*
G03X15572Y9497I-200J0D01*
G01*
G75*
G01X13692Y6197D02*
G03X13892Y5997I200J0D01*
G01*
G75*
G01X15772Y6197D02*
G02X15572Y5997I-200J0D01*
G01*
G75*
G01X21945Y10771D02*
G02X21745Y10971I0J200D01*
G01*
G75*
G01X21945Y12851D02*
G03X21745Y12651I0J-200D01*
G01*
G75*
G01X25045Y10771D02*
G03X25245Y10971I0J200D01*
G01*
G75*
G01X25045Y12851D02*
G02X25245Y12651I0J-200D01*
G01*
G75*
G01X7721Y20296D02*
G02X7521Y20496I0J200D01*
G01*
G75*
G01X7721Y22376D02*
G03X7521Y22176I0J-200D01*
G01*
G75*
G01X10821Y20296D02*
G03X11021Y20496I0J200D01*
G01*
G75*
G01X10821Y22376D02*
G02X11021Y22176I0J-200D01*
G01*
G75*
G01X357Y19711D02*
G02X557Y19911I200J0D01*
G01*
G75*
G01X2437Y19711D02*
G03X2237Y19911I-200J0D01*
G01*
G75*
G01X357Y16611D02*
G03X557Y16411I200J0D01*
G01*
G75*
G01X2437Y16611D02*
G02X2237Y16411I-200J0D01*
G01*
G75*
G01X7721Y15597D02*
G02X7521Y15797I0J200D01*
G01*
G75*
G01X7721Y17677D02*
G03X7521Y17477I0J-200D01*
G01*
G75*
G01X10821Y15597D02*
G03X11021Y15797I0J200D01*
G01*
G75*
G01X10821Y17677D02*
G02X11021Y17477I0J-200D01*
G01*
G75*
G01X45426Y8045D02*
G03X45676Y8295I0J250D01*
G01*
G75*
G01X45676Y10755D02*
G03X45426Y11005I-250J0D01*
G01*
G75*
G01X42706Y10755D02*
G02X42956Y11005I250J0D01*
G01*
G75*
G01X42956Y8045D02*
G02X42706Y8295I0J250D01*
G01*
G54D38*
G75*
G01X24479Y19988D02*
G02X24510Y21152I-129J586D01*
G01*
G75*
G01X24479Y7034D02*
G02X24510Y8198I-129J586D01*
G01*
G54D10*
G75*
G01X41707Y18771D02*
G03X41707Y18771I-330J0D01*
G01*
G75*
G01X43866Y8865D02*
G03X43866Y8865I-330J0D01*
G01*
G01X35052Y36830D02*
G01X45085Y36830D01*
G01X45085Y34290D01*
G01X35052Y34290D01*
G01X35052Y36830D01*
G01X34550Y33401D02*
G01X46228Y33401D01*
G01X46228Y31242D01*
G01X34550Y31242D01*
G01X34550Y33401D01*
G01X17907Y33401D02*
G01X33401Y33401D01*
G01X33401Y31242D01*
G01X17907Y31242D01*
G01X17907Y33401D01*
G01X18415Y36830D02*
G01X31115Y36830D01*
G01X31115Y34290D01*
G01X18415Y34290D01*
G01X18415Y36830D01*
G01X48895Y36830D02*
G01X53975Y36830D01*
G01X53975Y32131D01*
G01X48895Y32131D01*
G01X48895Y36830D01*
G01X56515Y36893D02*
G01X61595Y36893D01*
G01X61595Y32194D01*
G01X56515Y32194D01*
G01X56515Y36893D01*
M00*
M02*
