G04 Layer: TopSolderMaskLayer*
G04 EasyEDA v6.4.7, 2020-11-20T18:15:40+05:30*
G04 2bd19a94ae5149c988909f382a05baad,5a8210e43a1b4091af5044d7901ac753,10*
G04 Gerber Generator version 0.2*
G04 Scale: 100 percent, Rotated: No, Reflected: No *
G04 Dimensions in millimeters *
G04 leading zeros omitted , absolute positions ,3 integer and 3 decimal *
%FSLAX33Y33*%
%MOMM*%
G90*
D02*

%ADD39C,3.703320*%
%ADD40R,1.778000X1.778000*%
%ADD41C,1.778000*%
%ADD42C,1.727200*%
%ADD44C,1.703324*%
%ADD46C,1.701800*%
%ADD48C,1.803400*%

%LPD*%
G54D39*
G01X7277Y2774D02*
G01X8778Y2774D01*
G01X7277Y12973D02*
G01X8778Y12973D01*
G01X7150Y24999D02*
G01X8651Y24999D01*
G01X7150Y35198D02*
G01X8651Y35198D01*
G36*
G01X56896Y34671D02*
G01X56896Y36449D01*
G01X58674Y36449D01*
G01X58674Y34671D01*
G01X56896Y34671D01*
G37*
G54D41*
G01X60325Y35560D03*
G54D42*
G01X62808Y14456D03*
G01X60268Y14456D03*
G01X57728Y14456D03*
G01X55188Y14456D03*
G01X52648Y14456D03*
G01X50108Y14456D03*
G01X47568Y14456D03*
G01X45028Y14456D03*
G01X42488Y14456D03*
G01X39948Y14456D03*
G01X37408Y14456D03*
G01X34868Y14456D03*
G01X32328Y14456D03*
G01X29788Y14456D03*
G01X27248Y14456D03*
G01X24708Y14456D03*
G01X22168Y14456D03*
G01X19628Y14456D03*
G01X17088Y14456D03*
G36*
G01X64485Y28834D02*
G01X64485Y30561D01*
G01X66212Y30561D01*
G01X66212Y28834D01*
G01X64485Y28834D01*
G37*
G01X62808Y29696D03*
G01X60268Y29696D03*
G01X57728Y29696D03*
G01X55188Y29696D03*
G01X52648Y29696D03*
G01X50108Y29696D03*
G01X47568Y29696D03*
G01X45028Y29696D03*
G01X42488Y29696D03*
G01X39948Y29696D03*
G01X37408Y29696D03*
G01X34868Y29696D03*
G01X32328Y29696D03*
G01X29788Y29696D03*
G01X27248Y29696D03*
G01X24708Y29696D03*
G01X22168Y29696D03*
G01X19628Y29696D03*
G01X17088Y29696D03*
G36*
G01X64485Y13594D02*
G01X64485Y15321D01*
G01X66212Y15321D01*
G01X66212Y13594D01*
G01X64485Y13594D01*
G37*
G54D44*
G01X10414Y18923D03*
G01X7874Y18923D03*
G36*
G01X4483Y18072D02*
G01X4483Y19773D01*
G01X6184Y19773D01*
G01X6184Y18072D01*
G01X4483Y18072D01*
G37*
G54D40*
G01X52705Y35560D03*
G54D41*
G01X50165Y35560D03*
G54D46*
G01X43942Y35560D03*
G01X41402Y35560D03*
G01X38862Y35560D03*
G36*
G01X35471Y34709D02*
G01X35471Y36410D01*
G01X37172Y36410D01*
G01X37172Y34709D01*
G01X35471Y34709D01*
G37*
G54D48*
G01X12292Y7872D03*
G01X12292Y5373D03*
G01X12165Y30097D03*
G01X12165Y27598D03*
G54D46*
G01X29845Y35560D03*
G01X27305Y35560D03*
G01X24765Y35560D03*
G01X22225Y35560D03*
G36*
G01X18834Y34709D02*
G01X18834Y36410D01*
G01X20535Y36410D01*
G01X20535Y34709D01*
G01X18834Y34709D01*
G37*
M00*
M02*
